<svg width="180" height="80" viewBox="0 0 180 80" fill="none" xmlns="http://www.w3.org/2000/svg">
<path d="M46.08 19.04V22.112H47.88C48.296 22.112 48.576 22.008 48.72 21.8C48.864 21.576 48.936 21.304 48.936 20.984V20.168C48.936 19.848 48.864 19.584 48.72 19.376C48.576 19.152 48.296 19.04 47.88 19.04H46.08ZM45.216 32H41.52C41.216 32 40.992 31.936 40.848 31.808C40.72 31.664 40.656 31.44 40.656 31.136V15.584C40.656 15.28 40.72 15.064 40.848 14.936C40.992 14.792 41.216 14.72 41.52 14.72H49.512C51.304 14.72 52.536 15.096 53.208 15.848C53.896 16.584 54.24 17.544 54.24 18.728V19.832C54.24 20.504 54.136 21.08 53.928 21.56C53.736 22.024 53.392 22.36 52.896 22.568C53.76 22.664 54.456 23.016 54.984 23.624C55.528 24.232 55.8 25.04 55.8 26.048V31.136C55.8 31.44 55.728 31.664 55.584 31.808C55.456 31.936 55.24 32 54.936 32H51.216C50.912 32 50.688 31.936 50.544 31.808C50.416 31.664 50.352 31.44 50.352 31.136V27.464C50.352 27.112 50.28 26.856 50.136 26.696C50.008 26.52 49.776 26.432 49.44 26.432H46.08V31.136C46.08 31.44 46.008 31.664 45.864 31.808C45.736 31.936 45.52 32 45.216 32ZM75.6519 32H64.5159C64.2119 32 63.9879 31.936 63.8439 31.808C63.7159 31.664 63.6519 31.44 63.6519 31.136V15.584C63.6519 15.28 63.7159 15.064 63.8439 14.936C63.9879 14.792 64.2119 14.72 64.5159 14.72H75.6519C75.9559 14.72 76.1719 14.792 76.2999 14.936C76.4439 15.064 76.5159 15.28 76.5159 15.584V18.392C76.5159 18.696 76.4439 18.92 76.2999 19.064C76.1719 19.192 75.9559 19.256 75.6519 19.256H69.0279V21.104H73.7079C74.0119 21.104 74.2279 21.176 74.3559 21.32C74.4999 21.448 74.5719 21.664 74.5719 21.968V24.536C74.5719 24.84 74.4999 25.064 74.3559 25.208C74.2279 25.336 74.0119 25.4 73.7079 25.4H69.0279V27.464H75.6519C75.9559 27.464 76.1719 27.536 76.2999 27.68C76.4439 27.808 76.5159 28.024 76.5159 28.328V31.136C76.5159 31.44 76.4439 31.664 76.2999 31.808C76.1719 31.936 75.9559 32 75.6519 32ZM88.9791 32H85.3791C85.0751 32 84.8511 31.936 84.7071 31.808C84.5791 31.664 84.5151 31.44 84.5151 31.136V15.584C84.5151 15.28 84.5791 15.064 84.7071 14.936C84.8511 14.792 85.0751 14.72 85.3791 14.72H87.8751C88.1791 14.72 88.4351 14.768 88.6431 14.864C88.8671 14.96 89.0831 15.128 89.2911 15.368L93.9471 20.696V15.584C93.9471 15.28 94.0111 15.064 94.1391 14.936C94.2831 14.792 94.5071 14.72 94.8111 14.72H98.4111C98.7151 14.72 98.9311 14.792 99.0591 14.936C99.2031 15.064 99.2751 15.28 99.2751 15.584V31.136C99.2751 31.44 99.2031 31.664 99.0591 31.808C98.9311 31.936 98.7151 32 98.4111 32H94.8111C94.5071 32 94.2831 31.936 94.1391 31.808C94.0111 31.664 93.9471 31.44 93.9471 31.136V28.184L89.8431 23.216V31.136C89.8431 31.44 89.7711 31.664 89.6271 31.808C89.4991 31.936 89.2831 32 88.9791 32ZM115.905 32H112.017C111.713 32 111.489 31.936 111.345 31.808C111.217 31.664 111.153 31.44 111.153 31.136V19.352H107.625C107.321 19.352 107.097 19.288 106.953 19.16C106.825 19.016 106.761 18.792 106.761 18.488V15.584C106.761 15.28 106.825 15.064 106.953 14.936C107.097 14.792 107.321 14.72 107.625 14.72H120.297C120.601 14.72 120.817 14.792 120.945 14.936C121.089 15.064 121.161 15.28 121.161 15.584V18.488C121.161 18.792 121.089 19.016 120.945 19.16C120.817 19.288 120.601 19.352 120.297 19.352H116.769V31.136C116.769 31.44 116.697 31.664 116.553 31.808C116.425 31.936 116.209 32 115.905 32Z" fill="#7041E6"/>
<path d="M46.08 19.04V17.54H44.58V19.04H46.08ZM46.08 22.112H44.58V23.612H46.08V22.112ZM48.72 21.8L49.9533 22.6538L49.9679 22.6327L49.9818 22.6111L48.72 21.8ZM48.72 19.376L47.4582 20.1871L47.4721 20.2087L47.4867 20.2298L48.72 19.376ZM40.848 31.808L39.7269 32.8045L39.7855 32.8705L39.8515 32.9291L40.848 31.808ZM40.848 14.936L39.7873 13.8753L39.7873 13.8753L40.848 14.936ZM53.208 15.848L52.0895 16.8475L52.1007 16.86L52.1122 16.8723L53.208 15.848ZM53.928 21.56L52.5517 20.9636L52.5467 20.975L52.542 20.9865L53.928 21.56ZM52.896 22.568L52.3159 21.1847L46.9846 23.4204L52.7304 24.0588L52.896 22.568ZM54.984 23.624L53.8515 24.6075L53.8587 24.6159L53.8661 24.6242L54.984 23.624ZM55.584 31.808L56.6447 32.8687L56.6447 32.8687L55.584 31.808ZM50.544 31.808L49.4229 32.8045L49.4815 32.8705L49.5475 32.9291L50.544 31.808ZM50.136 26.696L48.9229 27.5783L48.9688 27.6414L49.0211 27.6994L50.136 26.696ZM46.08 26.432V24.932H44.58V26.432H46.08ZM45.864 31.808L44.8033 30.7473L44.8033 30.7473L45.864 31.808ZM44.58 19.04V22.112H47.58V19.04H44.58ZM46.08 23.612H47.88V20.612H46.08V23.612ZM47.88 23.612C48.4676 23.612 49.3861 23.4731 49.9533 22.6538L47.4867 20.9462C47.6194 20.7546 47.7851 20.663 47.8797 20.6279C47.9584 20.5986 47.9745 20.612 47.88 20.612V23.612ZM49.9818 22.6111C50.3102 22.1002 50.436 21.533 50.436 20.984H47.436C47.436 21.0318 47.4306 21.0492 47.4319 21.0442C47.4326 21.0416 47.4347 21.0345 47.4392 21.0241C47.4438 21.0136 47.4501 21.0015 47.4582 20.9889L49.9818 22.6111ZM50.436 20.984V20.168H47.436V20.984H50.436ZM50.436 20.168C50.436 19.6239 50.312 19.0403 49.9533 18.5222L47.4867 20.2298C47.4543 20.183 47.4399 20.1433 47.4349 20.1247C47.4304 20.1085 47.436 20.1194 47.436 20.168H50.436ZM49.9818 18.5649C49.4312 17.7085 48.5057 17.54 47.88 17.54V20.54C47.9647 20.54 47.9355 20.553 47.8449 20.5167C47.7352 20.4728 47.5768 20.3715 47.4582 20.1871L49.9818 18.5649ZM47.88 17.54H46.08V20.54H47.88V17.54ZM45.216 30.5H41.52V33.5H45.216V30.5ZM41.52 30.5C41.4675 30.5 41.4805 30.4938 41.5361 30.5097C41.596 30.5268 41.7168 30.5733 41.8445 30.6869L39.8515 32.9291C40.3906 33.4084 41.0507 33.5 41.52 33.5V30.5ZM41.9691 30.8115C42.0827 30.9392 42.1292 31.06 42.1463 31.1199C42.1622 31.1755 42.156 31.1885 42.156 31.136H39.156C39.156 31.6053 39.2476 32.2654 39.7269 32.8045L41.9691 30.8115ZM42.156 31.136V15.584H39.156V31.136H42.156ZM42.156 15.584C42.156 15.5295 42.1626 15.5511 42.1422 15.6201C42.1203 15.6941 42.0596 15.8458 41.9087 15.9967L39.7873 13.8753C39.2384 14.4243 39.156 15.1369 39.156 15.584H42.156ZM41.9087 15.9967C41.6588 16.2466 41.4197 16.22 41.52 16.22V13.22C41.0123 13.22 40.3252 13.3374 39.7873 13.8753L41.9087 15.9967ZM41.52 16.22H49.512V13.22H41.52V16.22ZM49.512 16.22C51.187 16.22 51.8582 16.5886 52.0895 16.8475L54.3265 14.8485C53.2138 13.6034 51.421 13.22 49.512 13.22V16.22ZM52.1122 16.8723C52.4957 17.2826 52.74 17.8533 52.74 18.728H55.74C55.74 17.2347 55.2963 15.8854 54.3038 14.8237L52.1122 16.8723ZM52.74 18.728V19.832H55.74V18.728H52.74ZM52.74 19.832C52.74 20.3549 52.6584 20.7172 52.5517 20.9636L55.3043 22.1564C55.6136 21.4428 55.74 20.6531 55.74 19.832H52.74ZM52.542 20.9865C52.5128 21.057 52.4756 21.1177 52.3159 21.1847L53.4761 23.9513C54.3084 23.6023 54.9592 22.991 55.314 22.1335L52.542 20.9865ZM52.7304 24.0588C53.2523 24.1168 53.5912 24.3079 53.8515 24.6075L56.1166 22.6405C55.3208 21.7241 54.2677 21.2112 53.0616 21.0772L52.7304 24.0588ZM53.8661 24.6242C54.1097 24.8964 54.3 25.3184 54.3 26.048H57.3C57.3 24.7616 56.9463 23.5676 56.1019 22.6238L53.8661 24.6242ZM54.3 26.048V31.136H57.3V26.048H54.3ZM54.3 31.136C54.3 31.2363 54.2734 30.9972 54.5233 30.7473L56.6447 32.8687C57.1826 32.3308 57.3 31.6437 57.3 31.136H54.3ZM54.5233 30.7473C54.6742 30.5964 54.8259 30.5357 54.8999 30.5138C54.9689 30.4934 54.9905 30.5 54.936 30.5V33.5C55.3831 33.5 56.0957 33.4176 56.6447 32.8687L54.5233 30.7473ZM54.936 30.5H51.216V33.5H54.936V30.5ZM51.216 30.5C51.1635 30.5 51.1765 30.4938 51.2321 30.5097C51.292 30.5268 51.4128 30.5733 51.5405 30.6869L49.5475 32.9291C50.0866 33.4084 50.7467 33.5 51.216 33.5V30.5ZM51.6651 30.8115C51.7787 30.9392 51.8252 31.06 51.8423 31.1199C51.8582 31.1755 51.852 31.1885 51.852 31.136H48.852C48.852 31.6053 48.9436 32.2654 49.4229 32.8045L51.6651 30.8115ZM51.852 31.136V27.464H48.852V31.136H51.852ZM51.852 27.464C51.852 26.9625 51.759 26.257 51.2509 25.6926L49.0211 27.6994C48.907 27.5727 48.866 27.4567 48.854 27.4141C48.8431 27.3752 48.852 27.3838 48.852 27.464H51.852ZM51.3491 25.8137C50.8112 25.0741 49.9871 24.932 49.44 24.932V27.932C49.4865 27.932 49.4364 27.9393 49.334 27.9005C49.2166 27.8559 49.0537 27.7581 48.9229 27.5783L51.3491 25.8137ZM49.44 24.932H46.08V27.932H49.44V24.932ZM44.58 26.432V31.136H47.58V26.432H44.58ZM44.58 31.136C44.58 31.2363 44.5534 30.9972 44.8033 30.7473L46.9247 32.8687C47.4626 32.3308 47.58 31.6437 47.58 31.136H44.58ZM44.8033 30.7473C44.9542 30.5964 45.1059 30.5357 45.1799 30.5138C45.2489 30.4934 45.2705 30.5 45.216 30.5V33.5C45.6631 33.5 46.3757 33.4176 46.9247 32.8687L44.8033 30.7473ZM63.8439 31.808L62.7228 32.8045L62.7814 32.8705L62.8474 32.9291L63.8439 31.808ZM63.8439 14.936L62.7833 13.8753L62.7833 13.8753L63.8439 14.936ZM76.2999 14.936L75.1788 15.9325L75.2374 15.9985L75.3034 16.0571L76.2999 14.936ZM69.0279 19.256V17.756H67.5279V19.256H69.0279ZM69.0279 21.104H67.5279V22.604H69.0279V21.104ZM74.3559 21.32L73.2348 22.3165L73.2934 22.3825L73.3594 22.4411L74.3559 21.32ZM69.0279 25.4V23.9H67.5279V25.4H69.0279ZM69.0279 27.464H67.5279V28.964H69.0279V27.464ZM76.2999 27.68L75.1788 28.6765L75.2374 28.7425L75.3034 28.8011L76.2999 27.68ZM76.2999 31.808L77.3606 32.8687L77.3606 32.8687L76.2999 31.808ZM75.6519 30.5H64.5159V33.5H75.6519V30.5ZM64.5159 30.5C64.4634 30.5 64.4764 30.4938 64.532 30.5097C64.5919 30.5268 64.7127 30.5733 64.8405 30.6869L62.8474 32.9291C63.3866 33.4084 64.0466 33.5 64.5159 33.5V30.5ZM64.9651 30.8115C65.0786 30.9392 65.1251 31.06 65.1422 31.1199C65.1581 31.1755 65.1519 31.1885 65.1519 31.136H62.1519C62.1519 31.6053 62.2435 32.2654 62.7228 32.8045L64.9651 30.8115ZM65.1519 31.136V15.584H62.1519V31.136H65.1519ZM65.1519 15.584C65.1519 15.5295 65.1586 15.5511 65.1381 15.6201C65.1162 15.6941 65.0555 15.8458 64.9046 15.9967L62.7833 13.8753C62.2343 14.4243 62.1519 15.1369 62.1519 15.584H65.1519ZM64.9046 15.9967C64.6547 16.2466 64.4157 16.22 64.5159 16.22V13.22C64.0082 13.22 63.3212 13.3374 62.7833 13.8753L64.9046 15.9967ZM64.5159 16.22H75.6519V13.22H64.5159V16.22ZM75.6519 16.22C75.6933 16.22 75.6541 16.2259 75.5676 16.197C75.4719 16.1651 75.3187 16.0899 75.1788 15.9325L77.4211 13.9395C76.8788 13.3294 76.1403 13.22 75.6519 13.22V16.22ZM75.3034 16.0571C75.146 15.9172 75.0708 15.764 75.0389 15.6683C75.0101 15.5818 75.0159 15.5427 75.0159 15.584H78.0159C78.0159 15.0957 77.9065 14.3571 77.2965 13.8149L75.3034 16.0571ZM75.0159 15.584V18.392H78.0159V15.584H75.0159ZM75.0159 18.392C75.0159 18.4923 74.9894 18.2532 75.2393 18.0033L77.3606 20.1247C77.8985 19.5868 78.0159 18.8997 78.0159 18.392H75.0159ZM75.2393 18.0033C75.3902 17.8524 75.5418 17.7917 75.6158 17.7698C75.6848 17.7494 75.7065 17.756 75.6519 17.756V20.756C76.0991 20.756 76.8116 20.6736 77.3606 20.1247L75.2393 18.0033ZM75.6519 17.756H69.0279V20.756H75.6519V17.756ZM67.5279 19.256V21.104H70.5279V19.256H67.5279ZM69.0279 22.604H73.7079V19.604H69.0279V22.604ZM73.7079 22.604C73.7493 22.604 73.7101 22.6099 73.6236 22.581C73.5279 22.5491 73.3747 22.4739 73.2348 22.3165L75.4771 20.3235C74.9348 19.7134 74.1963 19.604 73.7079 19.604V22.604ZM73.3594 22.4411C73.202 22.3012 73.1268 22.148 73.0949 22.0523C73.0661 21.9658 73.0719 21.9267 73.0719 21.968H76.0719C76.0719 21.4797 75.9625 20.7411 75.3525 20.1989L73.3594 22.4411ZM73.0719 21.968V24.536H76.0719V21.968H73.0719ZM73.0719 24.536C73.0719 24.6363 73.0454 24.3972 73.2953 24.1473L75.4166 26.2687C75.9545 25.7308 76.0719 25.0437 76.0719 24.536H73.0719ZM73.2953 24.1473C73.4462 23.9964 73.5978 23.9357 73.6718 23.9138C73.7408 23.8934 73.7625 23.9 73.7079 23.9V26.9C74.1551 26.9 74.8676 26.8176 75.4166 26.2687L73.2953 24.1473ZM73.7079 23.9H69.0279V26.9H73.7079V23.9ZM67.5279 25.4V27.464H70.5279V25.4H67.5279ZM69.0279 28.964H75.6519V25.964H69.0279V28.964ZM75.6519 28.964C75.6933 28.964 75.6541 28.9699 75.5676 28.941C75.4719 28.9091 75.3187 28.8339 75.1788 28.6765L77.4211 26.6835C76.8788 26.0734 76.1403 25.964 75.6519 25.964V28.964ZM75.3034 28.8011C75.146 28.6612 75.0708 28.508 75.0389 28.4123C75.0101 28.3258 75.0159 28.2867 75.0159 28.328H78.0159C78.0159 27.8397 77.9065 27.1011 77.2965 26.5589L75.3034 28.8011ZM75.0159 28.328V31.136H78.0159V28.328H75.0159ZM75.0159 31.136C75.0159 31.2363 74.9894 30.9972 75.2393 30.7473L77.3606 32.8687C77.8985 32.3308 78.0159 31.6437 78.0159 31.136H75.0159ZM75.2393 30.7473C75.3902 30.5964 75.5418 30.5357 75.6158 30.5138C75.6848 30.4934 75.7065 30.5 75.6519 30.5V33.5C76.0991 33.5 76.8116 33.4176 77.3606 32.8687L75.2393 30.7473ZM84.7071 31.808L83.5859 32.8045L83.6446 32.8705L83.7105 32.9291L84.7071 31.808ZM84.7071 14.936L83.6464 13.8753L83.6464 13.8753L84.7071 14.936ZM88.6431 14.864L88.0145 16.2259L88.0332 16.2346L88.0522 16.2427L88.6431 14.864ZM89.2911 15.368L88.1575 16.3504L88.1616 16.355L89.2911 15.368ZM93.9471 20.696L92.8176 21.683L95.4471 24.692V20.696H93.9471ZM99.0591 14.936L97.9379 15.9325L97.9966 15.9985L98.0625 16.0571L99.0591 14.936ZM99.0591 31.808L97.9984 30.7473L97.9984 30.7473L99.0591 31.808ZM94.1391 31.808L93.0179 32.8045L93.0766 32.8705L93.1425 32.9291L94.1391 31.808ZM93.9471 28.184H95.4471V27.6446L95.1035 27.2287L93.9471 28.184ZM89.8431 23.216L90.9995 22.2607L88.3431 19.045V23.216H89.8431ZM89.6271 31.808L88.5664 30.7473L88.5664 30.7473L89.6271 31.808ZM88.9791 30.5H85.3791V33.5H88.9791V30.5ZM85.3791 30.5C85.3266 30.5 85.3395 30.4938 85.3951 30.5097C85.455 30.5268 85.5758 30.5733 85.7036 30.6869L83.7105 32.9291C84.2497 33.4084 84.9097 33.5 85.3791 33.5V30.5ZM85.8282 30.8115C85.9418 30.9392 85.9882 31.06 86.0053 31.1199C86.0212 31.1755 86.0151 31.1885 86.0151 31.136H83.0151C83.0151 31.6053 83.1067 32.2654 83.5859 32.8045L85.8282 30.8115ZM86.0151 31.136V15.584H83.0151V31.136H86.0151ZM86.0151 15.584C86.0151 15.5295 86.0217 15.5511 86.0013 15.6201C85.9793 15.6941 85.9186 15.8458 85.7677 15.9967L83.6464 13.8753C83.0974 14.4243 83.0151 15.1369 83.0151 15.584H86.0151ZM85.7677 15.9967C85.5178 16.2466 85.2788 16.22 85.3791 16.22V13.22C84.8713 13.22 84.1843 13.3374 83.6464 13.8753L85.7677 15.9967ZM85.3791 16.22H87.8751V13.22H85.3791V16.22ZM87.8751 16.22C87.9493 16.22 87.9954 16.2259 88.0186 16.2303C88.0413 16.2346 88.0369 16.2363 88.0145 16.2259L89.2716 13.5021C88.8132 13.2905 88.3285 13.22 87.8751 13.22V16.22ZM88.0522 16.2427C88.0144 16.2265 88.0548 16.2319 88.1575 16.3504L90.4246 14.3856C90.1113 14.0241 89.7198 13.6935 89.2339 13.4853L88.0522 16.2427ZM88.1616 16.355L92.8176 21.683L95.0766 19.709L90.4206 14.381L88.1616 16.355ZM95.4471 20.696V15.584H92.4471V20.696H95.4471ZM95.4471 15.584C95.4471 15.5295 95.4537 15.5511 95.4333 15.6201C95.4113 15.6941 95.3506 15.8458 95.1997 15.9967L93.0784 13.8753C92.5294 14.4243 92.4471 15.1369 92.4471 15.584H95.4471ZM95.1997 15.9967C94.9498 16.2466 94.7108 16.22 94.8111 16.22V13.22C94.3033 13.22 93.6163 13.3374 93.0784 13.8753L95.1997 15.9967ZM94.8111 16.22H98.4111V13.22H94.8111V16.22ZM98.4111 16.22C98.4524 16.22 98.4132 16.2259 98.3267 16.197C98.2311 16.1651 98.0778 16.0899 97.9379 15.9325L100.18 13.9395C99.638 13.3294 98.8994 13.22 98.4111 13.22V16.22ZM98.0625 16.0571C97.9052 15.9172 97.8299 15.764 97.798 15.6683C97.7692 15.5818 97.7751 15.5427 97.7751 15.584H100.775C100.775 15.0957 100.666 14.3571 100.056 13.8149L98.0625 16.0571ZM97.7751 15.584V31.136H100.775V15.584H97.7751ZM97.7751 31.136C97.7751 31.2363 97.7485 30.9972 97.9984 30.7473L100.12 32.8687C100.658 32.3308 100.775 31.6437 100.775 31.136H97.7751ZM97.9984 30.7473C98.1493 30.5964 98.301 30.5357 98.3749 30.5138C98.4439 30.4934 98.4656 30.5 98.4111 30.5V33.5C98.8582 33.5 99.5707 33.4176 100.12 32.8687L97.9984 30.7473ZM98.4111 30.5H94.8111V33.5H98.4111V30.5ZM94.8111 30.5C94.7586 30.5 94.7715 30.4938 94.8271 30.5097C94.887 30.5268 95.0078 30.5733 95.1356 30.6869L93.1425 32.9291C93.6817 33.4084 94.3417 33.5 94.8111 33.5V30.5ZM95.2602 30.8115C95.3738 30.9392 95.4202 31.06 95.4373 31.1199C95.4532 31.1755 95.4471 31.1885 95.4471 31.136H92.4471C92.4471 31.6053 92.5387 32.2654 93.0179 32.8045L95.2602 30.8115ZM95.4471 31.136V28.184H92.4471V31.136H95.4471ZM95.1035 27.2287L90.9995 22.2607L88.6866 24.1713L92.7906 29.1393L95.1035 27.2287ZM88.3431 23.216V31.136H91.3431V23.216H88.3431ZM88.3431 31.136C88.3431 31.2363 88.3165 30.9972 88.5664 30.7473L90.6877 32.8687C91.2256 32.3308 91.3431 31.6437 91.3431 31.136H88.3431ZM88.5664 30.7473C88.7173 30.5964 88.869 30.5357 88.9429 30.5138C89.0119 30.4934 89.0336 30.5 88.9791 30.5V33.5C89.4262 33.5 90.1387 33.4176 90.6877 32.8687L88.5664 30.7473ZM111.345 31.808L110.224 32.8045L110.283 32.8705L110.349 32.9291L111.345 31.808ZM111.153 19.352H112.653V17.852H111.153V19.352ZM106.953 19.16L105.832 20.1565L105.891 20.2225L105.957 20.2811L106.953 19.16ZM106.953 14.936L105.893 13.8753L105.893 13.8753L106.953 14.936ZM120.945 14.936L119.824 15.9325L119.883 15.9985L119.949 16.0571L120.945 14.936ZM116.769 19.352V17.852H115.269V19.352H116.769ZM116.553 31.808L115.493 30.7473L115.493 30.7473L116.553 31.808ZM115.905 30.5H112.017V33.5H115.905V30.5ZM112.017 30.5C111.965 30.5 111.978 30.4938 112.033 30.5097C112.093 30.5268 112.214 30.5733 112.342 30.6869L110.349 32.9291C110.888 33.4084 111.548 33.5 112.017 33.5V30.5ZM112.466 30.8115C112.58 30.9392 112.627 31.06 112.644 31.1199C112.66 31.1755 112.653 31.1885 112.653 31.136H109.653C109.653 31.6053 109.745 32.2654 110.224 32.8045L112.466 30.8115ZM112.653 31.136V19.352H109.653V31.136H112.653ZM111.153 17.852H107.625V20.852H111.153V17.852ZM107.625 17.852C107.573 17.852 107.586 17.8458 107.641 17.8617C107.701 17.8788 107.822 17.9253 107.95 18.0389L105.957 20.2811C106.496 20.7604 107.156 20.852 107.625 20.852V17.852ZM108.074 18.1635C108.188 18.2912 108.235 18.412 108.252 18.4719C108.268 18.5275 108.261 18.5405 108.261 18.488H105.261C105.261 18.9573 105.353 19.6174 105.832 20.1565L108.074 18.1635ZM108.261 18.488V15.584H105.261V18.488H108.261ZM108.261 15.584C108.261 15.5295 108.268 15.5511 108.248 15.6201C108.226 15.6941 108.165 15.8458 108.014 15.9967L105.893 13.8753C105.344 14.4243 105.261 15.1369 105.261 15.584H108.261ZM108.014 15.9967C107.764 16.2466 107.525 16.22 107.625 16.22V13.22C107.118 13.22 106.431 13.3374 105.893 13.8753L108.014 15.9967ZM107.625 16.22H120.297V13.22H107.625V16.22ZM120.297 16.22C120.339 16.22 120.3 16.2259 120.213 16.197C120.117 16.1651 119.964 16.0899 119.824 15.9325L122.066 13.9395C121.524 13.3294 120.786 13.22 120.297 13.22V16.22ZM119.949 16.0571C119.791 15.9172 119.716 15.764 119.684 15.6683C119.656 15.5818 119.661 15.5427 119.661 15.584H122.661C122.661 15.0957 122.552 14.3571 121.942 13.8149L119.949 16.0571ZM119.661 15.584V18.488H122.661V15.584H119.661ZM119.661 18.488C119.661 18.5883 119.635 18.3492 119.885 18.0993L122.006 20.2207C122.544 19.6828 122.661 18.9957 122.661 18.488H119.661ZM119.885 18.0993C120.036 17.9484 120.187 17.8877 120.261 17.8658C120.33 17.8454 120.352 17.852 120.297 17.852V20.852C120.744 20.852 121.457 20.7696 122.006 20.2207L119.885 18.0993ZM120.297 17.852H116.769V20.852H120.297V17.852ZM115.269 19.352V31.136H118.269V19.352H115.269ZM115.269 31.136C115.269 31.2363 115.243 30.9972 115.493 30.7473L117.614 32.8687C118.152 32.3308 118.269 31.6437 118.269 31.136H115.269ZM115.493 30.7473C115.644 30.5964 115.795 30.5357 115.869 30.5138C115.938 30.4934 115.96 30.5 115.905 30.5V33.5C116.352 33.5 117.065 33.4176 117.614 32.8687L115.493 30.7473Z" fill="white"/>
<path d="M13.4289 24.6969C14.9572 24.1614 15.9484 22.2147 15.6428 20.3487C15.3372 18.4828 13.8505 17.4041 12.3221 17.9396C10.7938 18.475 9.80256 20.4217 10.1082 22.2877C10.4138 24.1537 11.9005 25.2323 13.4289 24.6969Z" fill="white" stroke="#7041E6" stroke-width="0.5"/>
<path d="M35.6472 33.1611C35.2606 31.5003 34.7521 29.9084 34.2898 28.3274C33.8822 26.9417 33.4325 25.7044 32.6885 24.5688C31.974 23.4765 31.0788 22.5003 29.9733 21.9984C27.3252 20.7706 23.0794 25.9866 18.8759 27.4386C14.6724 28.8906 9.2501 27.0143 7.27431 29.8392C5.90806 31.7841 5.50015 34.4156 5.38656 35.8742C5.29821 37.0831 5.94127 38.0126 6.90806 38.0803C7.29057 38.1089 7.66047 38.0614 8.01357 37.7788C8.71979 37.2135 9.47644 36.6843 10.2247 36.2384C10.6703 35.9773 11.5488 35.3793 12.0238 35.6972C12.9065 36.3297 9.85036 39.4742 9.53087 39.8256C8.89191 40.5284 8.25715 41.1226 7.58456 41.7566C6.50421 42.7458 5.92405 44.071 6.01222 45.6741C6.35255 47.8597 7.12161 50.3525 8.89126 50.1697C10.0514 50.0635 11.0855 49.1975 12.0103 48.3424C12.9519 47.4548 13.8515 46.4477 14.5956 45.3069C15.1295 44.5066 15.5877 43.652 15.9451 42.7251C16.3235 41.791 16.5001 40.8462 16.7608 39.8724C17.156 38.3701 17.9421 36.9469 19.0351 36.0338C19.384 35.7258 19.7833 35.454 20.2037 35.3088C20.9603 35.0474 21.8262 35.1768 22.5366 35.4402C24.1758 36.0791 25.0248 37.848 26.3026 39.1206C27.471 40.2702 28.8707 40.9383 30.3629 41.3602C31.7837 41.7532 33.5281 42.088 34.9573 41.1926C36.4916 40.2609 36.4413 37.8144 36.2313 36.1462C36.0632 35.1331 35.8741 34.1271 35.6472 33.1611ZM27.1773 32.6053C26.6519 32.7868 26.1475 32.4254 26.0425 31.7922C25.9374 31.1589 26.2737 30.5071 26.7992 30.3256C27.3246 30.1441 27.829 30.5055 27.934 31.1388C28.0391 31.772 27.7028 32.4238 27.1773 32.6053ZM29.3 34.0145C28.7745 34.196 28.2701 33.8346 28.1651 33.2014C28.06 32.5682 28.3964 31.9164 28.9218 31.7349C29.4472 31.5534 29.9516 31.9148 30.0567 32.548C30.1617 33.1812 29.8254 33.833 29.3 34.0145ZM28.6277 29.9618C28.1022 30.1433 27.5979 29.7819 27.4928 29.1487C27.3878 28.5155 27.7241 27.8637 28.2495 27.6822C28.775 27.5007 29.2793 27.8621 29.3844 28.4953C29.4894 29.1285 29.1531 29.7803 28.6277 29.9618ZM30.9605 31.2985C30.435 31.48 29.9307 31.1186 29.8256 30.4854C29.7206 29.8521 30.0569 29.2003 30.5823 29.0188C31.1078 28.8373 31.6122 29.1987 31.7172 29.832C31.8222 30.4652 31.4859 31.117 30.9605 31.2985Z" fill="white" stroke="#7041E6" stroke-width="0.5"/>
<path d="M22.4855 21.9918C24.0139 21.4564 25.0051 19.5096 24.6994 17.6437C24.3938 15.7777 22.9071 14.6991 21.3788 15.2345C19.8504 15.7699 18.8592 17.7166 19.1648 19.5826C19.4704 21.4486 20.9572 22.5272 22.4855 21.9918Z" fill="white" stroke="#7041E6" stroke-width="0.5"/>
<path d="M57.245 43.06V44.468H58.07C58.2607 44.468 58.389 44.4203 58.455 44.325C58.521 44.2223 58.554 44.0977 58.554 43.951V43.577C58.554 43.4303 58.521 43.3093 58.455 43.214C58.389 43.1113 58.2607 43.06 58.07 43.06H57.245ZM56.849 49H55.155C55.0157 49 54.913 48.9707 54.847 48.912C54.7883 48.846 54.759 48.7433 54.759 48.604V41.476C54.759 41.3367 54.7883 41.2377 54.847 41.179C54.913 41.113 55.0157 41.08 55.155 41.08H58.818C59.6393 41.08 60.204 41.2523 60.512 41.597C60.8273 41.9343 60.985 42.3743 60.985 42.917V43.423C60.985 43.731 60.9373 43.995 60.842 44.215C60.754 44.4277 60.5963 44.5817 60.369 44.677C60.765 44.721 61.084 44.8823 61.326 45.161C61.5753 45.4397 61.7 45.81 61.7 46.272V48.604C61.7 48.7433 61.667 48.846 61.601 48.912C61.5423 48.9707 61.4433 49 61.304 49H59.599C59.4597 49 59.357 48.9707 59.291 48.912C59.2323 48.846 59.203 48.7433 59.203 48.604V46.921C59.203 46.7597 59.17 46.6423 59.104 46.569C59.0453 46.4883 58.939 46.448 58.785 46.448H57.245V48.604C57.245 48.7433 57.212 48.846 57.146 48.912C57.0873 48.9707 56.9883 49 56.849 49ZM70.7988 49H65.6948C65.5555 49 65.4528 48.9707 65.3868 48.912C65.3281 48.846 65.2988 48.7433 65.2988 48.604V41.476C65.2988 41.3367 65.3281 41.2377 65.3868 41.179C65.4528 41.113 65.5555 41.08 65.6948 41.08H70.7988C70.9381 41.08 71.0371 41.113 71.0958 41.179C71.1618 41.2377 71.1948 41.3367 71.1948 41.476V42.763C71.1948 42.9023 71.1618 43.005 71.0958 43.071C71.0371 43.1297 70.9381 43.159 70.7988 43.159H67.7628V44.006H69.9078C70.0471 44.006 70.1461 44.039 70.2048 44.105C70.2708 44.1637 70.3038 44.2627 70.3038 44.402V45.579C70.3038 45.7183 70.2708 45.821 70.2048 45.887C70.1461 45.9457 70.0471 45.975 69.9078 45.975H67.7628V46.921H70.7988C70.9381 46.921 71.0371 46.954 71.0958 47.02C71.1618 47.0787 71.1948 47.1777 71.1948 47.317V48.604C71.1948 48.7433 71.1618 48.846 71.0958 48.912C71.0371 48.9707 70.9381 49 70.7988 49ZM76.9071 49H75.2571C75.1177 49 75.0151 48.9707 74.9491 48.912C74.8904 48.846 74.8611 48.7433 74.8611 48.604V41.476C74.8611 41.3367 74.8904 41.2377 74.9491 41.179C75.0151 41.113 75.1177 41.08 75.2571 41.08H76.4011C76.5404 41.08 76.6577 41.102 76.7531 41.146C76.8557 41.19 76.9547 41.267 77.0501 41.377L79.1841 43.819V41.476C79.1841 41.3367 79.2134 41.2377 79.2721 41.179C79.3381 41.113 79.4407 41.08 79.5801 41.08H81.2301C81.3694 41.08 81.4684 41.113 81.5271 41.179C81.5931 41.2377 81.6261 41.3367 81.6261 41.476V48.604C81.6261 48.7433 81.5931 48.846 81.5271 48.912C81.4684 48.9707 81.3694 49 81.2301 49H79.5801C79.4407 49 79.3381 48.9707 79.2721 48.912C79.2134 48.846 79.1841 48.7433 79.1841 48.604V47.251L77.3031 44.974V48.604C77.3031 48.7433 77.2701 48.846 77.2041 48.912C77.1454 48.9707 77.0464 49 76.9071 49ZM89.2483 49H87.4663C87.327 49 87.2243 48.9707 87.1583 48.912C87.0996 48.846 87.0703 48.7433 87.0703 48.604V43.203H85.4533C85.314 43.203 85.2113 43.1737 85.1453 43.115C85.0866 43.049 85.0573 42.9463 85.0573 42.807V41.476C85.0573 41.3367 85.0866 41.2377 85.1453 41.179C85.2113 41.113 85.314 41.08 85.4533 41.08H91.2613C91.4006 41.08 91.4996 41.113 91.5583 41.179C91.6243 41.2377 91.6573 41.3367 91.6573 41.476V42.807C91.6573 42.9463 91.6243 43.049 91.5583 43.115C91.4996 43.1737 91.4006 43.203 91.2613 43.203H89.6443V48.604C89.6443 48.7433 89.6113 48.846 89.5453 48.912C89.4866 48.9707 89.3876 49 89.2483 49ZM101.921 49H100.216C100.077 49 99.9743 48.9707 99.9083 48.912C99.8497 48.846 99.8203 48.7433 99.8203 48.604V41.476C99.8203 41.3367 99.8497 41.2377 99.9083 41.179C99.9743 41.113 100.077 41.08 100.216 41.08H101.921C102.061 41.08 102.16 41.113 102.218 41.179C102.284 41.2377 102.317 41.3367 102.317 41.476V43.863H104.154V41.476C104.154 41.3367 104.184 41.2377 104.242 41.179C104.308 41.113 104.411 41.08 104.55 41.08H106.255C106.395 41.08 106.494 41.113 106.552 41.179C106.618 41.2377 106.651 41.3367 106.651 41.476V48.604C106.651 48.7433 106.618 48.846 106.552 48.912C106.494 48.9707 106.395 49 106.255 49H104.55C104.411 49 104.308 48.9707 104.242 48.912C104.184 48.846 104.154 48.7433 104.154 48.604V46.162H102.317V48.604C102.317 48.7433 102.284 48.846 102.218 48.912C102.16 48.9707 102.061 49 101.921 49ZM113.403 43.39L112.886 45.062H114.613L114.096 43.39C114.067 43.324 114.034 43.2763 113.997 43.247C113.968 43.2177 113.931 43.203 113.887 43.203H113.612C113.568 43.203 113.528 43.2177 113.491 43.247C113.462 43.2763 113.432 43.324 113.403 43.39ZM112.776 48.604C112.776 48.7433 112.743 48.846 112.677 48.912C112.618 48.9707 112.519 49 112.38 49H110.763C110.624 49 110.521 48.9707 110.455 48.912C110.396 48.846 110.367 48.7433 110.367 48.604V45.7C110.367 45.48 110.4 45.227 110.466 44.941C110.539 44.655 110.649 44.3213 110.796 43.94L111.753 41.443C111.797 41.3183 111.863 41.2267 111.951 41.168C112.046 41.1093 112.167 41.08 112.314 41.08H115.273C115.412 41.08 115.526 41.1093 115.614 41.168C115.709 41.2267 115.779 41.3183 115.823 41.443L116.78 43.94C116.927 44.3213 117.033 44.655 117.099 44.941C117.172 45.227 117.209 45.48 117.209 45.7V48.604C117.209 48.7433 117.176 48.846 117.11 48.912C117.051 48.9707 116.952 49 116.813 49H115.152C115.005 49 114.895 48.9707 114.822 48.912C114.756 48.846 114.723 48.7433 114.723 48.604V47.064H112.776V48.604ZM123.033 49H121.328C121.189 49 121.086 48.9707 121.02 48.912C120.961 48.846 120.932 48.7433 120.932 48.604V41.476C120.932 41.3367 120.961 41.2377 121.02 41.179C121.086 41.113 121.189 41.08 121.328 41.08H124.694C125.691 41.08 126.373 41.278 126.74 41.674C127.107 42.07 127.29 42.587 127.29 43.225V44.633C127.29 45.271 127.107 45.788 126.74 46.184C126.373 46.58 125.691 46.778 124.694 46.778H123.429V48.604C123.429 48.7433 123.396 48.846 123.33 48.912C123.271 48.9707 123.172 49 123.033 49ZM123.407 43.137V44.798H124.397C124.61 44.798 124.749 44.743 124.815 44.633C124.881 44.523 124.914 44.3983 124.914 44.259V43.676C124.914 43.5367 124.881 43.412 124.815 43.302C124.749 43.192 124.61 43.137 124.397 43.137H123.407ZM132.896 49H131.191C131.052 49 130.949 48.9707 130.883 48.912C130.825 48.846 130.795 48.7433 130.795 48.604V41.476C130.795 41.3367 130.825 41.2377 130.883 41.179C130.949 41.113 131.052 41.08 131.191 41.08H134.557C135.555 41.08 136.237 41.278 136.603 41.674C136.97 42.07 137.153 42.587 137.153 43.225V44.633C137.153 45.271 136.97 45.788 136.603 46.184C136.237 46.58 135.555 46.778 134.557 46.778H133.292V48.604C133.292 48.7433 133.259 48.846 133.193 48.912C133.135 48.9707 133.036 49 132.896 49ZM133.27 43.137V44.798H134.26C134.473 44.798 134.612 44.743 134.678 44.633C134.744 44.523 134.777 44.3983 134.777 44.259V43.676C134.777 43.5367 134.744 43.412 134.678 43.302C134.612 43.192 134.473 43.137 134.26 43.137H133.27ZM144.673 49H142.891C142.752 49 142.649 48.9707 142.583 48.912C142.525 48.846 142.495 48.7433 142.495 48.604V47.196L140.812 44.941C140.644 44.7137 140.53 44.5157 140.471 44.347C140.42 44.1783 140.394 43.9253 140.394 43.588V41.476C140.394 41.3367 140.424 41.2377 140.482 41.179C140.548 41.113 140.651 41.08 140.79 41.08H142.484C142.624 41.08 142.723 41.113 142.781 41.179C142.847 41.2377 142.88 41.3367 142.88 41.476V43.28C142.88 43.3533 142.884 43.4303 142.891 43.511C142.899 43.5917 142.928 43.6687 142.979 43.742L143.485 44.534C143.522 44.6 143.559 44.6477 143.595 44.677C143.639 44.7063 143.691 44.721 143.749 44.721H143.859C143.918 44.721 143.966 44.7063 144.002 44.677C144.046 44.6477 144.087 44.6 144.123 44.534L144.629 43.742C144.681 43.6687 144.71 43.5917 144.717 43.511C144.725 43.4303 144.728 43.3533 144.728 43.28V41.476C144.728 41.3367 144.758 41.2377 144.816 41.179C144.882 41.113 144.985 41.08 145.124 41.08H146.763C146.903 41.08 147.002 41.113 147.06 41.179C147.126 41.2377 147.159 41.3367 147.159 41.476V43.588C147.159 43.9253 147.13 44.1783 147.071 44.347C147.013 44.5157 146.903 44.7137 146.741 44.941L145.069 47.207V48.604C145.069 48.7433 145.036 48.846 144.97 48.912C144.912 48.9707 144.813 49 144.673 49Z" fill="#7041E6"/>
<path d="M57.245 43.06V41.56H55.745V43.06H57.245ZM57.245 44.468H55.745V45.968H57.245V44.468ZM58.455 44.325L59.6883 45.1788L59.7029 45.1577L59.7168 45.1361L58.455 44.325ZM58.455 43.214L57.1932 44.0251L57.2071 44.0467L57.2217 44.0678L58.455 43.214ZM54.847 48.912L53.7259 49.9085L53.7845 49.9745L53.8505 50.0331L54.847 48.912ZM54.847 41.179L53.7863 40.1183L53.7863 40.1183L54.847 41.179ZM60.512 41.597L59.3935 42.5965L59.4047 42.609L59.4162 42.6213L60.512 41.597ZM60.842 44.215L59.4657 43.6186L59.4607 43.63L59.456 43.6415L60.842 44.215ZM60.369 44.677L59.7889 43.2937L54.4576 45.5294L60.2034 46.1678L60.369 44.677ZM61.326 45.161L60.1935 46.1445L60.2007 46.1529L60.2081 46.1612L61.326 45.161ZM61.601 48.912L62.6617 49.9727L62.6617 49.9727L61.601 48.912ZM59.291 48.912L58.1699 49.9085L58.2285 49.9745L58.2945 50.0331L59.291 48.912ZM59.104 46.569L57.8909 47.4513L57.9368 47.5144L57.9891 47.5724L59.104 46.569ZM57.245 46.448V44.948H55.745V46.448H57.245ZM57.146 48.912L56.0853 47.8513L56.0853 47.8513L57.146 48.912ZM55.745 43.06V44.468H58.745V43.06H55.745ZM57.245 45.968H58.07V42.968H57.245V45.968ZM58.07 45.968C58.4322 45.968 59.1991 45.8854 59.6883 45.1788L57.2217 43.4712C57.3934 43.2232 57.6165 43.0894 57.787 43.0261C57.9415 42.9687 58.0519 42.968 58.07 42.968V45.968ZM59.7168 45.1361C59.9672 44.7465 60.054 44.3267 60.054 43.951H57.054C57.054 43.8687 57.0748 43.6981 57.1932 43.5139L59.7168 45.1361ZM60.054 43.951V43.577H57.054V43.951H60.054ZM60.054 43.577C60.054 43.2062 59.969 42.7656 59.6883 42.3602L57.2217 44.0678C57.073 43.8531 57.054 43.6545 57.054 43.577H60.054ZM59.7168 42.4029C59.2442 41.6678 58.4704 41.56 58.07 41.56V44.56C58.042 44.56 57.9186 44.5578 57.7522 44.4912C57.5666 44.417 57.3508 44.2702 57.1932 44.0251L59.7168 42.4029ZM58.07 41.56H57.245V44.56H58.07V41.56ZM56.849 47.5H55.155V50.5H56.849V47.5ZM55.155 47.5C55.181 47.5 55.5144 47.4983 55.8435 47.7909L53.8505 50.0331C54.3116 50.4431 54.8503 50.5 55.155 50.5V47.5ZM55.9681 47.9155C56.2607 48.2446 56.259 48.578 56.259 48.604H53.259C53.259 48.9087 53.3159 49.4474 53.7259 49.9085L55.9681 47.9155ZM56.259 48.604V41.476H53.259V48.604H56.259ZM56.259 41.476C56.259 41.5038 56.257 41.5959 56.2192 41.7234C56.1799 41.8559 56.0932 42.0541 55.9077 42.2397L53.7863 40.1183C53.3067 40.598 53.259 41.1935 53.259 41.476H56.259ZM55.9077 42.2397C55.5798 42.5676 55.2194 42.58 55.155 42.58V39.58C54.8119 39.58 54.2462 39.6584 53.7863 40.1183L55.9077 42.2397ZM55.155 42.58H58.818V39.58H55.155V42.58ZM58.818 42.58C59.1337 42.58 59.3226 42.6143 59.4196 42.6439C59.5113 42.6719 59.4665 42.6782 59.3935 42.5965L61.6305 40.5975C60.8818 39.7597 59.7563 39.58 58.818 39.58V42.58ZM59.4162 42.6213C59.4271 42.6329 59.485 42.6836 59.485 42.917H62.485C62.485 42.065 62.2276 41.2357 61.6078 40.5727L59.4162 42.6213ZM59.485 42.917V43.423H62.485V42.917H59.485ZM59.485 43.423C59.485 43.5819 59.4598 43.6322 59.4657 43.6186L62.2183 44.8114C62.4149 44.3578 62.485 43.8801 62.485 43.423H59.485ZM59.456 43.6415C59.4861 43.5686 59.5368 43.4881 59.6096 43.4169C59.681 43.3473 59.749 43.3104 59.7889 43.2937L60.9491 46.0603C61.5127 45.8239 61.9772 45.3946 62.228 44.7885L59.456 43.6415ZM60.2034 46.1678C60.2242 46.1701 60.2349 46.173 60.2375 46.1737C60.2399 46.1744 60.2361 46.1735 60.2283 46.1695C60.2204 46.1655 60.212 46.1602 60.2044 46.1543C60.1968 46.1484 60.1933 46.1443 60.1935 46.1445L62.4586 44.1775C61.9488 43.5905 61.2727 43.2682 60.5346 43.1862L60.2034 46.1678ZM60.2081 46.1612C60.2012 46.1535 60.1949 46.1447 60.19 46.1361C60.1851 46.1278 60.184 46.1236 60.1849 46.1263C60.1868 46.1321 60.2 46.1748 60.2 46.272H63.2C63.2 45.5316 62.9937 44.7753 62.4439 44.1608L60.2081 46.1612ZM60.2 46.272V48.604H63.2V46.272H60.2ZM60.2 48.604C60.2 48.5396 60.2124 48.1792 60.5403 47.8513L62.6617 49.9727C63.1216 49.5128 63.2 48.9471 63.2 48.604H60.2ZM60.5403 47.8513C60.7259 47.6658 60.9241 47.5791 61.0566 47.5398C61.1841 47.502 61.2762 47.5 61.304 47.5V50.5C61.5865 50.5 62.182 50.4523 62.6617 49.9727L60.5403 47.8513ZM61.304 47.5H59.599V50.5H61.304V47.5ZM59.599 47.5C59.625 47.5 59.9584 47.4983 60.2875 47.7909L58.2945 50.0331C58.7556 50.4431 59.2943 50.5 59.599 50.5V47.5ZM60.4121 47.9155C60.7047 48.2446 60.703 48.578 60.703 48.604H57.703C57.703 48.9087 57.7599 49.4474 58.1699 49.9085L60.4121 47.9155ZM60.703 48.604V46.921H57.703V48.604H60.703ZM60.703 46.921C60.703 46.6102 60.649 46.0433 60.2189 45.5656L57.9891 47.5724C57.836 47.4024 57.7658 47.23 57.7343 47.1181C57.7038 47.0099 57.703 46.9361 57.703 46.921H60.703ZM60.3171 45.6867C59.8485 45.0424 59.1501 44.948 58.785 44.948V47.948C58.7279 47.948 58.2422 47.9342 57.8909 47.4513L60.3171 45.6867ZM58.785 44.948H57.245V47.948H58.785V44.948ZM55.745 46.448V48.604H58.745V46.448H55.745ZM55.745 48.604C55.745 48.5396 55.7574 48.1792 56.0853 47.8513L58.2067 49.9727C58.6666 49.5128 58.745 48.9471 58.745 48.604H55.745ZM56.0853 47.8513C56.2709 47.6658 56.4691 47.5791 56.6016 47.5398C56.7291 47.502 56.8212 47.5 56.849 47.5V50.5C57.1315 50.5 57.727 50.4523 58.2067 49.9727L56.0853 47.8513ZM65.3868 48.912L64.2657 49.9085L64.3243 49.9745L64.3903 50.0331L65.3868 48.912ZM65.3868 41.179L64.3261 40.1183L64.3261 40.1183L65.3868 41.179ZM71.0958 41.179L69.9747 42.1755L70.0333 42.2415L70.0993 42.3001L71.0958 41.179ZM67.7628 43.159V41.659H66.2628V43.159H67.7628ZM67.7628 44.006H66.2628V45.506H67.7628V44.006ZM70.2048 44.105L69.0837 45.1015L69.1423 45.1675L69.2083 45.2261L70.2048 44.105ZM70.2048 45.887L69.1441 44.8263L70.2048 45.887ZM67.7628 45.975V44.475H66.2628V45.975H67.7628ZM67.7628 46.921H66.2628V48.421H67.7628V46.921ZM71.0958 47.02L69.9747 48.0165L70.0333 48.0825L70.0993 48.1411L71.0958 47.02ZM71.0958 48.912L72.1565 49.9727L72.1565 49.9727L71.0958 48.912ZM70.7988 47.5H65.6948V50.5H70.7988V47.5ZM65.6948 47.5C65.7208 47.5 66.0542 47.4983 66.3834 47.7909L64.3903 50.0331C64.8514 50.4431 65.3901 50.5 65.6948 50.5V47.5ZM66.5079 47.9155C66.8005 48.2446 66.7988 48.578 66.7988 48.604H63.7988C63.7988 48.9087 63.8557 49.4474 64.2657 49.9085L66.5079 47.9155ZM66.7988 48.604V41.476H63.7988V48.604H66.7988ZM66.7988 41.476C66.7988 41.5038 66.7968 41.5959 66.759 41.7234C66.7198 41.8559 66.633 42.0541 66.4475 42.2397L64.3261 40.1183C63.8465 40.598 63.7988 41.1935 63.7988 41.476H66.7988ZM66.4475 42.2397C66.1196 42.5676 65.7592 42.58 65.6948 42.58V39.58C65.3517 39.58 64.786 39.6584 64.3261 40.1183L66.4475 42.2397ZM65.6948 42.58H70.7988V39.58H65.6948V42.58ZM70.7988 42.58C70.7538 42.58 70.3303 42.5756 69.9747 42.1755L72.2169 40.1825C71.744 39.6504 71.1225 39.58 70.7988 39.58V42.58ZM70.0993 42.3001C69.6993 41.9446 69.6948 41.521 69.6948 41.476H72.6948C72.6948 41.1523 72.6244 40.5308 72.0924 40.0579L70.0993 42.3001ZM69.6948 41.476V42.763H72.6948V41.476H69.6948ZM69.6948 42.763C69.6948 42.6986 69.7072 42.3382 70.0351 42.0103L72.1565 44.1317C72.6164 43.6718 72.6948 43.1061 72.6948 42.763H69.6948ZM70.0351 42.0103C70.2207 41.8248 70.4189 41.7381 70.5514 41.6988C70.6789 41.661 70.771 41.659 70.7988 41.659V44.659C71.0813 44.659 71.6768 44.6113 72.1565 44.1317L70.0351 42.0103ZM70.7988 41.659H67.7628V44.659H70.7988V41.659ZM66.2628 43.159V44.006H69.2628V43.159H66.2628ZM67.7628 45.506H69.9078V42.506H67.7628V45.506ZM69.9078 45.506C69.8628 45.506 69.4393 45.5016 69.0837 45.1015L71.3259 43.1085C70.853 42.5764 70.2315 42.506 69.9078 42.506V45.506ZM69.2083 45.2261C68.8083 44.8706 68.8038 44.447 68.8038 44.402H71.8038C71.8038 44.0783 71.7334 43.4568 71.2014 42.9839L69.2083 45.2261ZM68.8038 44.402V45.579H71.8038V44.402H68.8038ZM68.8038 45.579C68.8038 45.5146 68.8162 45.1542 69.1441 44.8263L71.2655 46.9477C71.7254 46.4878 71.8038 45.9221 71.8038 45.579H68.8038ZM69.1441 44.8263C69.3297 44.6408 69.5279 44.5541 69.6604 44.5148C69.7879 44.477 69.88 44.475 69.9078 44.475V47.475C70.1903 47.475 70.7858 47.4273 71.2655 46.9477L69.1441 44.8263ZM69.9078 44.475H67.7628V47.475H69.9078V44.475ZM66.2628 45.975V46.921H69.2628V45.975H66.2628ZM67.7628 48.421H70.7988V45.421H67.7628V48.421ZM70.7988 48.421C70.7538 48.421 70.3303 48.4166 69.9747 48.0165L72.2169 46.0235C71.744 45.4914 71.1225 45.421 70.7988 45.421V48.421ZM70.0993 48.1411C69.6993 47.7856 69.6948 47.362 69.6948 47.317H72.6948C72.6948 46.9933 72.6244 46.3718 72.0924 45.8989L70.0993 48.1411ZM69.6948 47.317V48.604H72.6948V47.317H69.6948ZM69.6948 48.604C69.6948 48.5396 69.7072 48.1792 70.0351 47.8513L72.1565 49.9727C72.6164 49.5128 72.6948 48.9471 72.6948 48.604H69.6948ZM70.0351 47.8513C70.2207 47.6658 70.4189 47.5791 70.5514 47.5398C70.6789 47.502 70.771 47.5 70.7988 47.5V50.5C71.0813 50.5 71.6768 50.4523 72.1565 49.9727L70.0351 47.8513ZM74.9491 48.912L73.828 49.9085L73.8866 49.9745L73.9525 50.0331L74.9491 48.912ZM74.9491 41.179L73.8884 40.1183L73.8884 40.1183L74.9491 41.179ZM76.7531 41.146L76.1245 42.5079L76.1432 42.5166L76.1622 42.5247L76.7531 41.146ZM77.0501 41.377L75.9165 42.3594L75.9206 42.364L77.0501 41.377ZM79.1841 43.819L78.0546 44.806L80.6841 47.815V43.819H79.1841ZM79.2721 41.179L80.3327 42.2397L79.2721 41.179ZM81.5271 41.179L80.406 42.1755L80.4646 42.2415L80.5305 42.3001L81.5271 41.179ZM81.5271 48.912L80.4664 47.8513L80.4664 47.8513L81.5271 48.912ZM79.2721 48.912L78.151 49.9085L78.2096 49.9745L78.2755 50.0331L79.2721 48.912ZM79.1841 47.251H80.6841V46.7116L80.3405 46.2957L79.1841 47.251ZM77.3031 44.974L78.4595 44.0187L75.8031 40.803V44.974H77.3031ZM77.2041 48.912L76.1434 47.8513L76.1434 47.8513L77.2041 48.912ZM76.9071 47.5H75.2571V50.5H76.9071V47.5ZM75.2571 47.5C75.2831 47.5 75.6164 47.4983 75.9456 47.7909L73.9525 50.0331C74.4137 50.4431 74.9524 50.5 75.2571 50.5V47.5ZM76.0702 47.9155C76.3628 48.2446 76.3611 48.578 76.3611 48.604H73.3611C73.3611 48.9087 73.418 49.4474 73.828 49.9085L76.0702 47.9155ZM76.3611 48.604V41.476H73.3611V48.604H76.3611ZM76.3611 41.476C76.3611 41.5038 76.359 41.5959 76.3213 41.7234C76.282 41.8559 76.1953 42.0541 76.0097 42.2397L73.8884 40.1183C73.4088 40.598 73.3611 41.1935 73.3611 41.476H76.3611ZM76.0097 42.2397C75.6818 42.5676 75.3215 42.58 75.2571 42.58V39.58C74.914 39.58 74.3483 39.6584 73.8884 40.1183L76.0097 42.2397ZM75.2571 42.58H76.4011V39.58H75.2571V42.58ZM76.4011 42.58C76.391 42.58 76.2796 42.5795 76.1245 42.5079L77.3817 39.7841C77.0359 39.6245 76.6898 39.58 76.4011 39.58V42.58ZM76.1622 42.5247C76.003 42.4565 75.9265 42.3709 75.9165 42.3594L78.1836 40.3946C77.983 40.1631 77.7084 39.9235 77.344 39.7673L76.1622 42.5247ZM75.9206 42.364L78.0546 44.806L80.3136 42.832L78.1796 40.39L75.9206 42.364ZM80.6841 43.819V41.476H77.6841V43.819H80.6841ZM80.6841 41.476C80.6841 41.5038 80.682 41.5959 80.6443 41.7234C80.605 41.8559 80.5183 42.0541 80.3327 42.2397L78.2114 40.1183C77.7318 40.598 77.6841 41.1935 77.6841 41.476H80.6841ZM80.3327 42.2397C80.0048 42.5676 79.6445 42.58 79.5801 42.58V39.58C79.237 39.58 78.6713 39.6584 78.2114 40.1183L80.3327 42.2397ZM79.5801 42.58H81.2301V39.58H79.5801V42.58ZM81.2301 42.58C81.1851 42.58 80.7615 42.5756 80.406 42.1755L82.6482 40.1825C82.1753 39.6504 81.5537 39.58 81.2301 39.58V42.58ZM80.5305 42.3001C80.1305 41.9446 80.1261 41.521 80.1261 41.476H83.1261C83.1261 41.1523 83.0556 40.5308 82.5236 40.0579L80.5305 42.3001ZM80.1261 41.476V48.604H83.1261V41.476H80.1261ZM80.1261 48.604C80.1261 48.5396 80.1385 48.1792 80.4664 47.8513L82.5877 49.9727C83.0476 49.5128 83.1261 48.9471 83.1261 48.604H80.1261ZM80.4664 47.8513C80.652 47.6658 80.8502 47.5791 80.9827 47.5398C81.1102 47.502 81.2023 47.5 81.2301 47.5V50.5C81.5125 50.5 82.1081 50.4523 82.5877 49.9727L80.4664 47.8513ZM81.2301 47.5H79.5801V50.5H81.2301V47.5ZM79.5801 47.5C79.6061 47.5 79.9394 47.4983 80.2686 47.7909L78.2755 50.0331C78.7367 50.4431 79.2754 50.5 79.5801 50.5V47.5ZM80.3932 47.9155C80.6858 48.2446 80.6841 48.578 80.6841 48.604H77.6841C77.6841 48.9087 77.741 49.4474 78.151 49.9085L80.3932 47.9155ZM80.6841 48.604V47.251H77.6841V48.604H80.6841ZM80.3405 46.2957L78.4595 44.0187L76.1466 45.9293L78.0276 48.2063L80.3405 46.2957ZM75.8031 44.974V48.604H78.8031V44.974H75.8031ZM75.8031 48.604C75.8031 48.5396 75.8155 48.1792 76.1434 47.8513L78.2647 49.9727C78.7246 49.5128 78.8031 48.9471 78.8031 48.604H75.8031ZM76.1434 47.8513C76.329 47.6658 76.5272 47.5791 76.6597 47.5398C76.7872 47.502 76.8793 47.5 76.9071 47.5V50.5C77.1895 50.5 77.7851 50.4523 78.2647 49.9727L76.1434 47.8513ZM87.1583 48.912L86.0372 49.9085L86.0958 49.9745L86.1618 50.0331L87.1583 48.912ZM87.0703 43.203H88.5703V41.703H87.0703V43.203ZM85.1453 43.115L84.0242 44.1115L84.0828 44.1775L84.1487 44.2361L85.1453 43.115ZM85.1453 41.179L84.0846 40.1183L84.0846 40.1183L85.1453 41.179ZM91.5583 41.179L90.4372 42.1755L90.4958 42.2415L90.5617 42.3001L91.5583 41.179ZM89.6443 43.203V41.703H88.1443V43.203H89.6443ZM89.5453 48.912L88.4846 47.8513L88.4846 47.8513L89.5453 48.912ZM89.2483 47.5H87.4663V50.5H89.2483V47.5ZM87.4663 47.5C87.4923 47.5 87.8257 47.4983 88.1548 47.7909L86.1618 50.0331C86.6229 50.4431 87.1616 50.5 87.4663 50.5V47.5ZM88.2794 47.9155C88.572 48.2446 88.5703 48.578 88.5703 48.604H85.5703C85.5703 48.9087 85.6272 49.4474 86.0372 49.9085L88.2794 47.9155ZM88.5703 48.604V43.203H85.5703V48.604H88.5703ZM87.0703 41.703H85.4533V44.703H87.0703V41.703ZM85.4533 41.703C85.4793 41.703 85.8127 41.7013 86.1418 41.9939L84.1487 44.2361C84.6099 44.6461 85.1486 44.703 85.4533 44.703V41.703ZM86.2664 42.1185C86.559 42.4476 86.5573 42.781 86.5573 42.807H83.5573C83.5573 43.1117 83.6142 43.6504 84.0242 44.1115L86.2664 42.1185ZM86.5573 42.807V41.476H83.5573V42.807H86.5573ZM86.5573 41.476C86.5573 41.5038 86.5553 41.5959 86.5175 41.7234C86.4782 41.8559 86.3915 42.0541 86.206 42.2397L84.0846 40.1183C83.605 40.598 83.5573 41.1935 83.5573 41.476H86.5573ZM86.206 42.2397C85.8781 42.5676 85.5177 42.58 85.4533 42.58V39.58C85.1102 39.58 84.5445 39.6584 84.0846 40.1183L86.206 42.2397ZM85.4533 42.58H91.2613V39.58H85.4533V42.58ZM91.2613 42.58C91.2163 42.58 90.7927 42.5756 90.4372 42.1755L92.6794 40.1825C92.2065 39.6504 91.5849 39.58 91.2613 39.58V42.58ZM90.5617 42.3001C90.1617 41.9446 90.1573 41.521 90.1573 41.476H93.1573C93.1573 41.1523 93.0868 40.5308 92.5548 40.0579L90.5617 42.3001ZM90.1573 41.476V42.807H93.1573V41.476H90.1573ZM90.1573 42.807C90.1573 42.7426 90.1697 42.3822 90.4976 42.0543L92.619 44.1757C93.0789 43.7158 93.1573 43.1501 93.1573 42.807H90.1573ZM90.4976 42.0543C90.6832 41.8688 90.8814 41.7821 91.0139 41.7428C91.1414 41.705 91.2335 41.703 91.2613 41.703V44.703C91.5437 44.703 92.1393 44.6553 92.619 44.1757L90.4976 42.0543ZM91.2613 41.703H89.6443V44.703H91.2613V41.703ZM88.1443 43.203V48.604H91.1443V43.203H88.1443ZM88.1443 48.604C88.1443 48.5396 88.1567 48.1792 88.4846 47.8513L90.606 49.9727C91.0659 49.5128 91.1443 48.9471 91.1443 48.604H88.1443ZM88.4846 47.8513C88.6702 47.6658 88.8684 47.5791 89.0009 47.5398C89.1284 47.502 89.2205 47.5 89.2483 47.5V50.5C89.5307 50.5 90.1263 50.4523 90.606 49.9727L88.4846 47.8513ZM99.9083 48.912L98.7872 49.9085L98.8458 49.9745L98.9118 50.0331L99.9083 48.912ZM99.9083 41.179L98.8477 40.1183L98.8477 40.1183L99.9083 41.179ZM102.218 41.179L101.097 42.1755L101.156 42.2415L101.222 42.3001L102.218 41.179ZM102.317 43.863H100.817V45.363H102.317V43.863ZM104.154 43.863V45.363H105.654V43.863H104.154ZM104.242 41.179L103.182 40.1183L103.182 40.1183L104.242 41.179ZM106.552 41.179L105.431 42.1755L105.49 42.2415L105.556 42.3001L106.552 41.179ZM106.552 48.912L107.613 49.9727L107.613 49.9727L106.552 48.912ZM104.242 48.912L103.121 49.9085L103.18 49.9745L103.246 50.0331L104.242 48.912ZM104.154 46.162H105.654V44.662H104.154V46.162ZM102.317 46.162V44.662H100.817V46.162H102.317ZM102.218 48.912L101.158 47.8513L101.158 47.8513L102.218 48.912ZM101.921 47.5H100.216V50.5H101.921V47.5ZM100.216 47.5C100.242 47.5 100.576 47.4983 100.905 47.7909L98.9118 50.0331C99.373 50.4431 99.9117 50.5 100.216 50.5V47.5ZM101.029 47.9155C101.322 48.2446 101.32 48.578 101.32 48.604H98.3203C98.3203 48.9087 98.3773 49.4474 98.7872 49.9085L101.029 47.9155ZM101.32 48.604V41.476H98.3203V48.604H101.32ZM101.32 41.476C101.32 41.5038 101.318 41.5959 101.281 41.7234C101.241 41.8559 101.155 42.0541 100.969 42.2397L98.8477 40.1183C98.368 40.598 98.3203 41.1935 98.3203 41.476H101.32ZM100.969 42.2397C100.641 42.5676 100.281 42.58 100.216 42.58V39.58C99.8733 39.58 99.3076 39.6584 98.8477 40.1183L100.969 42.2397ZM100.216 42.58H101.921V39.58H100.216V42.58ZM101.921 42.58C101.876 42.58 101.453 42.5756 101.097 42.1755L103.339 40.1825C102.867 39.6504 102.245 39.58 101.921 39.58V42.58ZM101.222 42.3001C100.822 41.9446 100.817 41.521 100.817 41.476H103.817C103.817 41.1523 103.747 40.5308 103.215 40.0579L101.222 42.3001ZM100.817 41.476V43.863H103.817V41.476H100.817ZM102.317 45.363H104.154V42.363H102.317V45.363ZM105.654 43.863V41.476H102.654V43.863H105.654ZM105.654 41.476C105.654 41.5038 105.652 41.5959 105.615 41.7234C105.575 41.8559 105.489 42.0541 105.303 42.2397L103.182 40.1183C102.702 40.598 102.654 41.1935 102.654 41.476H105.654ZM105.303 42.2397C104.975 42.5676 104.615 42.58 104.55 42.58V39.58C104.207 39.58 103.642 39.6584 103.182 40.1183L105.303 42.2397ZM104.55 42.58H106.255V39.58H104.55V42.58ZM106.255 42.58C106.21 42.58 105.787 42.5756 105.431 42.1755L107.673 40.1825C107.201 39.6504 106.579 39.58 106.255 39.58V42.58ZM105.556 42.3001C105.156 41.9446 105.151 41.521 105.151 41.476H108.151C108.151 41.1523 108.081 40.5308 107.549 40.0579L105.556 42.3001ZM105.151 41.476V48.604H108.151V41.476H105.151ZM105.151 48.604C105.151 48.5396 105.164 48.1792 105.492 47.8513L107.613 49.9727C108.073 49.5128 108.151 48.9471 108.151 48.604H105.151ZM105.492 47.8513C105.677 47.6658 105.875 47.5791 106.008 47.5398C106.135 47.502 106.228 47.5 106.255 47.5V50.5C106.538 50.5 107.133 50.4523 107.613 49.9727L105.492 47.8513ZM106.255 47.5H104.55V50.5H106.255V47.5ZM104.55 47.5C104.576 47.5 104.91 47.4983 105.239 47.7909L103.246 50.0331C103.707 50.4431 104.246 50.5 104.55 50.5V47.5ZM105.363 47.9155C105.656 48.2446 105.654 48.578 105.654 48.604H102.654C102.654 48.9087 102.711 49.4474 103.121 49.9085L105.363 47.9155ZM105.654 48.604V46.162H102.654V48.604H105.654ZM104.154 44.662H102.317V47.662H104.154V44.662ZM100.817 46.162V48.604H103.817V46.162H100.817ZM100.817 48.604C100.817 48.5396 100.83 48.1792 101.158 47.8513L103.279 49.9727C103.739 49.5128 103.817 48.9471 103.817 48.604H100.817ZM101.158 47.8513C101.343 47.6658 101.541 47.5791 101.674 47.5398C101.801 47.502 101.894 47.5 101.921 47.5V50.5C102.204 50.5 102.799 50.4523 103.279 49.9727L101.158 47.8513ZM113.403 43.39L112.032 42.7808L111.996 42.862L111.97 42.9469L113.403 43.39ZM112.886 45.062L111.453 44.6189L110.852 46.562H112.886V45.062ZM114.613 45.062V46.562H116.647L116.046 44.6189L114.613 45.062ZM114.096 43.39L115.529 42.9469L115.503 42.862L115.467 42.7808L114.096 43.39ZM113.997 43.247L112.936 44.3077L112.995 44.3664L113.06 44.4183L113.997 43.247ZM113.491 43.247L112.554 42.0757L112.489 42.1276L112.43 42.1863L113.491 43.247ZM112.677 48.912L111.616 47.8513L111.616 47.8513L112.677 48.912ZM110.455 48.912L109.334 49.9085L109.393 49.9745L109.458 50.0331L110.455 48.912ZM110.466 44.941L109.013 44.5684L109.009 44.586L109.004 44.6037L110.466 44.941ZM110.796 43.94L112.196 44.4785L112.197 44.4768L110.796 43.94ZM111.753 41.443L113.154 41.9798L113.161 41.9611L113.167 41.9422L111.753 41.443ZM111.951 41.168L111.165 39.8905L111.142 39.9048L111.119 39.9199L111.951 41.168ZM115.614 41.168L114.782 42.4161L114.805 42.4312L114.828 42.4455L115.614 41.168ZM115.823 41.443L114.409 41.9422L114.415 41.9611L114.422 41.9798L115.823 41.443ZM116.78 43.94L115.379 44.4768L115.38 44.4785L116.78 43.94ZM117.099 44.941L115.637 45.2783L115.642 45.296L115.646 45.3136L117.099 44.941ZM117.11 48.912L118.171 49.9727L118.171 49.9727L117.11 48.912ZM114.822 48.912L113.761 49.9727L113.82 50.0314L113.885 50.0833L114.822 48.912ZM114.723 47.064H116.223V45.564H114.723V47.064ZM112.776 47.064V45.564H111.276V47.064H112.776ZM111.97 42.9469L111.453 44.6189L114.319 45.5051L114.836 43.8331L111.97 42.9469ZM112.886 46.562H114.613V43.562H112.886V46.562ZM116.046 44.6189L115.529 42.9469L112.663 43.8331L113.18 45.5051L116.046 44.6189ZM115.467 42.7808C115.388 42.6027 115.232 42.3143 114.934 42.0757L113.06 44.4183C112.942 44.3237 112.864 44.2275 112.816 44.1586C112.768 44.0893 112.74 44.032 112.725 43.9992L115.467 42.7808ZM115.058 42.1863C114.729 41.8573 114.302 41.703 113.887 41.703V44.703C113.74 44.703 113.568 44.6779 113.39 44.6067C113.211 44.5348 113.058 44.4293 112.936 44.3077L115.058 42.1863ZM113.887 41.703H113.612V44.703H113.887V41.703ZM113.612 41.703C113.204 41.703 112.837 41.8489 112.554 42.0757L114.428 44.4183C114.218 44.5864 113.932 44.703 113.612 44.703V41.703ZM112.43 42.1863C112.208 42.4082 112.089 42.6523 112.032 42.7808L114.774 43.9992C114.769 44.0107 114.753 44.0443 114.724 44.0909C114.698 44.1346 114.643 44.2166 114.552 44.3077L112.43 42.1863ZM111.276 48.604C111.276 48.5396 111.288 48.1792 111.616 47.8513L113.738 49.9727C114.198 49.5128 114.276 48.9471 114.276 48.604H111.276ZM111.616 47.8513C111.802 47.6658 112 47.5791 112.133 47.5398C112.26 47.502 112.352 47.5 112.38 47.5V50.5C112.662 50.5 113.258 50.4523 113.738 49.9727L111.616 47.8513ZM112.38 47.5H110.763V50.5H112.38V47.5ZM110.763 47.5C110.789 47.5 111.122 47.4983 111.452 47.7909L109.458 50.0331C109.92 50.4431 110.458 50.5 110.763 50.5V47.5ZM111.576 47.9155C111.869 48.2446 111.867 48.578 111.867 48.604H108.867C108.867 48.9087 108.924 49.4474 109.334 49.9085L111.576 47.9155ZM111.867 48.604V45.7H108.867V48.604H111.867ZM111.867 45.7C111.867 45.624 111.879 45.4879 111.928 45.2783L109.004 44.6037C108.921 44.9661 108.867 45.336 108.867 45.7H111.867ZM111.919 45.3136C111.974 45.1005 112.063 44.8245 112.196 44.4785L109.396 43.4015C109.236 43.8182 109.105 44.2095 109.013 44.5684L111.919 45.3136ZM112.197 44.4768L113.154 41.9798L110.352 40.9062L109.395 43.4032L112.197 44.4768ZM113.167 41.9422C113.131 42.0459 113.026 42.2538 112.783 42.4161L111.119 39.9199C110.7 40.1995 110.463 40.5907 110.339 40.9438L113.167 41.9422ZM112.737 42.4455C112.533 42.5709 112.361 42.58 112.314 42.58V39.58C111.974 39.58 111.559 39.6478 111.165 39.8905L112.737 42.4455ZM112.314 42.58H115.273V39.58H112.314V42.58ZM115.273 42.58C115.209 42.58 115.007 42.5664 114.782 42.4161L116.446 39.9199C116.045 39.6522 115.616 39.58 115.273 39.58V42.58ZM114.828 42.4455C114.58 42.293 114.457 42.0801 114.409 41.9422L117.237 40.9438C117.101 40.5566 116.839 40.1603 116.4 39.8905L114.828 42.4455ZM114.422 41.9798L115.379 44.4768L118.181 43.4032L117.224 40.9062L114.422 41.9798ZM115.38 44.4785C115.51 44.8176 115.592 45.0814 115.637 45.2783L118.561 44.6037C118.474 44.2286 118.343 43.8251 118.18 43.4015L115.38 44.4785ZM115.646 45.3136C115.698 45.5164 115.709 45.6401 115.709 45.7H118.709C118.709 45.3199 118.647 44.9376 118.552 44.5684L115.646 45.3136ZM115.709 45.7V48.604H118.709V45.7H115.709ZM115.709 48.604C115.709 48.5396 115.721 48.1792 116.049 47.8513L118.171 49.9727C118.631 49.5128 118.709 48.9471 118.709 48.604H115.709ZM116.049 47.8513C116.235 47.6658 116.433 47.5791 116.566 47.5398C116.693 47.502 116.785 47.5 116.813 47.5V50.5C117.095 50.5 117.691 50.4523 118.171 49.9727L116.049 47.8513ZM116.813 47.5H115.152V50.5H116.813V47.5ZM115.152 47.5C115.174 47.5 115.245 47.5017 115.346 47.5286C115.45 47.5564 115.603 47.6157 115.759 47.7407L113.885 50.0833C114.337 50.4452 114.845 50.5 115.152 50.5V47.5ZM115.883 47.8513C116.211 48.1792 116.223 48.5396 116.223 48.604H113.223C113.223 48.9471 113.301 49.5128 113.761 49.9727L115.883 47.8513ZM116.223 48.604V47.064H113.223V48.604H116.223ZM114.723 45.564H112.776V48.564H114.723V45.564ZM111.276 47.064V48.604H114.276V47.064H111.276ZM121.02 48.912L119.899 49.9085L119.958 49.9745L120.024 50.0331L121.02 48.912ZM121.02 41.179L119.96 40.1183L119.96 40.1183L121.02 41.179ZM126.74 41.674L125.64 42.6931L125.64 42.6931L126.74 41.674ZM126.74 46.184L125.64 45.1649L125.64 45.1649L126.74 46.184ZM123.429 46.778V45.278H121.929V46.778H123.429ZM123.33 48.912L122.27 47.8513L122.27 47.8513L123.33 48.912ZM123.407 43.137V41.637H121.907V43.137H123.407ZM123.407 44.798H121.907V46.298H123.407V44.798ZM124.815 44.633L126.101 45.4047L126.101 45.4047L124.815 44.633ZM124.815 43.302L123.529 44.0737L123.529 44.0737L124.815 43.302ZM123.033 47.5H121.328V50.5H123.033V47.5ZM121.328 47.5C121.354 47.5 121.688 47.4983 122.017 47.7909L120.024 50.0331C120.485 50.4431 121.023 50.5 121.328 50.5V47.5ZM122.141 47.9155C122.434 48.2446 122.432 48.578 122.432 48.604H119.432C119.432 48.9087 119.489 49.4474 119.899 49.9085L122.141 47.9155ZM122.432 48.604V41.476H119.432V48.604H122.432ZM122.432 41.476C122.432 41.5038 122.43 41.5959 122.392 41.7234C122.353 41.8559 122.266 42.0541 122.081 42.2397L119.96 40.1183C119.48 40.598 119.432 41.1935 119.432 41.476H122.432ZM122.081 42.2397C121.753 42.5676 121.393 42.58 121.328 42.58V39.58C120.985 39.58 120.419 39.6584 119.96 40.1183L122.081 42.2397ZM121.328 42.58H124.694V39.58H121.328V42.58ZM124.694 42.58C125.104 42.58 125.373 42.6218 125.535 42.669C125.695 42.7155 125.691 42.7486 125.64 42.6931L127.841 40.6549C127.027 39.7763 125.786 39.58 124.694 39.58V42.58ZM125.64 42.6931C125.704 42.7625 125.79 42.8917 125.79 43.225H128.79C128.79 42.2823 128.51 41.3775 127.841 40.6549L125.64 42.6931ZM125.79 43.225V44.633H128.79V43.225H125.79ZM125.79 44.633C125.79 44.9663 125.704 45.0955 125.64 45.1649L127.841 47.2031C128.51 46.4805 128.79 45.5757 128.79 44.633H125.79ZM125.64 45.1649C125.691 45.1094 125.695 45.1425 125.535 45.189C125.373 45.2362 125.104 45.278 124.694 45.278V48.278C125.786 48.278 127.027 48.0817 127.841 47.2031L125.64 45.1649ZM124.694 45.278H123.429V48.278H124.694V45.278ZM121.929 46.778V48.604H124.929V46.778H121.929ZM121.929 48.604C121.929 48.5396 121.942 48.1792 122.27 47.8513L124.391 49.9727C124.851 49.5128 124.929 48.9471 124.929 48.604H121.929ZM122.27 47.8513C122.455 47.6658 122.653 47.5791 122.786 47.5398C122.913 47.502 123.005 47.5 123.033 47.5V50.5C123.316 50.5 123.911 50.4523 124.391 49.9727L122.27 47.8513ZM121.907 43.137V44.798H124.907V43.137H121.907ZM123.407 46.298H124.397V43.298H123.407V46.298ZM124.397 46.298C124.778 46.298 125.62 46.2064 126.101 45.4047L123.529 43.8613C123.693 43.5874 123.927 43.4341 124.11 43.3615C124.273 43.2973 124.388 43.298 124.397 43.298V46.298ZM126.101 45.4047C126.319 45.0417 126.414 44.646 126.414 44.259H123.414C123.414 44.1507 123.443 44.0043 123.529 43.8613L126.101 45.4047ZM126.414 44.259V43.676H123.414V44.259H126.414ZM126.414 43.676C126.414 43.289 126.319 42.8933 126.101 42.5303L123.529 44.0737C123.443 43.9307 123.414 43.7843 123.414 43.676H126.414ZM126.101 42.5303C125.62 41.7286 124.778 41.637 124.397 41.637V44.637C124.388 44.637 124.273 44.6377 124.11 44.5735C123.927 44.5009 123.693 44.3476 123.529 44.0737L126.101 42.5303ZM124.397 41.637H123.407V44.637H124.397V41.637ZM130.883 48.912L129.762 49.9085L129.821 49.9745L129.887 50.0331L130.883 48.912ZM130.883 41.179L129.823 40.1183L129.823 40.1183L130.883 41.179ZM136.603 41.674L135.503 42.6931L135.503 42.6931L136.603 41.674ZM136.603 46.184L135.503 45.1649L135.503 45.1649L136.603 46.184ZM133.292 46.778V45.278H131.792V46.778H133.292ZM133.193 48.912L132.133 47.8513L132.133 47.8513L133.193 48.912ZM133.27 43.137V41.637H131.77V43.137H133.27ZM133.27 44.798H131.77V46.298H133.27V44.798ZM134.678 44.633L135.964 45.4047L135.964 45.4047L134.678 44.633ZM134.678 43.302L133.392 44.0737L133.392 44.0737L134.678 43.302ZM132.896 47.5H131.191V50.5H132.896V47.5ZM131.191 47.5C131.217 47.5 131.551 47.4983 131.88 47.7909L129.887 50.0331C130.348 50.4431 130.887 50.5 131.191 50.5V47.5ZM132.004 47.9155C132.297 48.2446 132.295 48.578 132.295 48.604H129.295C129.295 48.9087 129.352 49.4474 129.762 49.9085L132.004 47.9155ZM132.295 48.604V41.476H129.295V48.604H132.295ZM132.295 41.476C132.295 41.5038 132.293 41.5959 132.255 41.7234C132.216 41.8559 132.129 42.0541 131.944 42.2397L129.823 40.1183C129.343 40.598 129.295 41.1935 129.295 41.476H132.295ZM131.944 42.2397C131.616 42.5676 131.256 42.58 131.191 42.58V39.58C130.848 39.58 130.282 39.6584 129.823 40.1183L131.944 42.2397ZM131.191 42.58H134.557V39.58H131.191V42.58ZM134.557 42.58C134.967 42.58 135.236 42.6218 135.398 42.669C135.559 42.7155 135.554 42.7486 135.503 42.6931L137.704 40.6549C136.89 39.7763 135.649 39.58 134.557 39.58V42.58ZM135.503 42.6931C135.567 42.7625 135.653 42.8917 135.653 43.225H138.653C138.653 42.2823 138.373 41.3775 137.704 40.6549L135.503 42.6931ZM135.653 43.225V44.633H138.653V43.225H135.653ZM135.653 44.633C135.653 44.9663 135.567 45.0955 135.503 45.1649L137.704 47.2031C138.373 46.4805 138.653 45.5757 138.653 44.633H135.653ZM135.503 45.1649C135.554 45.1094 135.559 45.1425 135.398 45.189C135.236 45.2362 134.967 45.278 134.557 45.278V48.278C135.649 48.278 136.89 48.0817 137.704 47.2031L135.503 45.1649ZM134.557 45.278H133.292V48.278H134.557V45.278ZM131.792 46.778V48.604H134.792V46.778H131.792ZM131.792 48.604C131.792 48.5396 131.805 48.1792 132.133 47.8513L134.254 49.9727C134.714 49.5128 134.792 48.9471 134.792 48.604H131.792ZM132.133 47.8513C132.318 47.6658 132.516 47.5791 132.649 47.5398C132.776 47.502 132.868 47.5 132.896 47.5V50.5C133.179 50.5 133.774 50.4523 134.254 49.9727L132.133 47.8513ZM131.77 43.137V44.798H134.77V43.137H131.77ZM133.27 46.298H134.26V43.298H133.27V46.298ZM134.26 46.298C134.642 46.298 135.483 46.2064 135.964 45.4047L133.392 43.8613C133.556 43.5874 133.79 43.4341 133.973 43.3615C134.136 43.2973 134.251 43.298 134.26 43.298V46.298ZM135.964 45.4047C136.182 45.0417 136.277 44.646 136.277 44.259H133.277C133.277 44.1507 133.306 44.0043 133.392 43.8613L135.964 45.4047ZM136.277 44.259V43.676H133.277V44.259H136.277ZM136.277 43.676C136.277 43.289 136.182 42.8933 135.964 42.5303L133.392 44.0737C133.306 43.9307 133.277 43.7843 133.277 43.676H136.277ZM135.964 42.5303C135.483 41.7286 134.642 41.637 134.26 41.637V44.637C134.251 44.637 134.136 44.6377 133.973 44.5735C133.79 44.5009 133.556 44.3476 133.392 44.0737L135.964 42.5303ZM134.26 41.637H133.27V44.637H134.26V41.637ZM142.583 48.912L141.462 49.9085L141.521 49.9745L141.587 50.0331L142.583 48.912ZM142.495 47.196H143.995V46.698L143.697 46.2988L142.495 47.196ZM140.812 44.941L139.608 45.8348L139.61 45.8382L140.812 44.941ZM140.471 44.347L139.036 44.7837L139.045 44.8119L139.055 44.8398L140.471 44.347ZM140.482 41.179L139.422 40.1183L139.422 40.1183L140.482 41.179ZM142.781 41.179L141.66 42.1755L141.719 42.2415L141.785 42.3001L142.781 41.179ZM142.891 43.511L141.397 43.6468L141.397 43.6468L142.891 43.511ZM142.979 43.742L144.243 42.9344L144.226 42.9077L144.208 42.8818L142.979 43.742ZM143.485 44.534L144.796 43.8055L144.774 43.7652L144.749 43.7264L143.485 44.534ZM143.595 44.677L142.658 45.8483L142.709 45.889L142.763 45.9251L143.595 44.677ZM144.002 44.677L143.17 43.4289L143.116 43.465L143.065 43.5057L144.002 44.677ZM144.123 44.534L142.859 43.7264L142.834 43.7653L142.812 43.8055L144.123 44.534ZM144.629 43.742L143.4 42.8818L143.382 42.9077L143.365 42.9344L144.629 43.742ZM144.717 43.511L146.211 43.6468L146.211 43.6468L144.717 43.511ZM144.816 41.179L145.877 42.2397L144.816 41.179ZM147.06 41.179L145.939 42.1755L145.998 42.2415L146.064 42.3001L147.06 41.179ZM147.071 44.347L145.655 43.8542L145.655 43.8542L147.071 44.347ZM146.741 44.941L147.948 45.8316L147.956 45.8204L147.965 45.8091L146.741 44.941ZM145.069 47.207L143.862 46.3164L143.569 46.7135V47.207H145.069ZM144.97 48.912L146.031 49.9727L146.031 49.9727L144.97 48.912ZM144.673 47.5H142.891V50.5H144.673V47.5ZM142.891 47.5C142.917 47.5 143.251 47.4983 143.58 47.7909L141.587 50.0331C142.048 50.4431 142.587 50.5 142.891 50.5V47.5ZM143.704 47.9155C143.997 48.2446 143.995 48.578 143.995 48.604H140.995C140.995 48.9087 141.052 49.4474 141.462 49.9085L143.704 47.9155ZM143.995 48.604V47.196H140.995V48.604H143.995ZM143.697 46.2988L142.014 44.0438L139.61 45.8382L141.293 48.0932L143.697 46.2988ZM142.017 44.0472C141.96 43.97 141.923 43.913 141.901 43.8752C141.879 43.836 141.88 43.8301 141.888 43.8542L139.055 44.8398C139.184 45.2107 139.395 45.5479 139.608 45.8348L142.017 44.0472ZM141.906 43.9103C141.918 43.9498 141.913 43.9476 141.906 43.8794C141.899 43.8163 141.894 43.7213 141.894 43.588H138.894C138.894 43.9643 138.919 44.3975 139.036 44.7837L141.906 43.9103ZM141.894 43.588V41.476H138.894V43.588H141.894ZM141.894 41.476C141.894 41.5038 141.892 41.5959 141.854 41.7234C141.815 41.8559 141.728 42.0541 141.543 42.2397L139.422 40.1183C138.942 40.598 138.894 41.1935 138.894 41.476H141.894ZM141.543 42.2397C141.215 42.5676 140.855 42.58 140.79 42.58V39.58C140.447 39.58 139.882 39.6584 139.422 40.1183L141.543 42.2397ZM140.79 42.58H142.484V39.58H140.79V42.58ZM142.484 42.58C142.439 42.58 142.016 42.5756 141.66 42.1755L143.902 40.1825C143.429 39.6504 142.808 39.58 142.484 39.58V42.58ZM141.785 42.3001C141.385 41.9446 141.38 41.521 141.38 41.476H144.38C144.38 41.1523 144.31 40.5308 143.778 40.0579L141.785 42.3001ZM141.38 41.476V43.28H144.38V41.476H141.38ZM141.38 43.28C141.38 43.4031 141.386 43.5256 141.397 43.6468L144.385 43.3752C144.381 43.3351 144.38 43.3036 144.38 43.28H141.38ZM141.397 43.6468C141.431 44.0146 141.565 44.3377 141.75 44.6022L144.208 42.8818C144.291 42.9996 144.366 43.1687 144.385 43.3752L141.397 43.6468ZM141.715 44.5496L142.221 45.3416L144.749 43.7264L144.243 42.9344L141.715 44.5496ZM142.174 45.2625C142.255 45.4078 142.405 45.6455 142.658 45.8483L144.532 43.5057C144.63 43.5837 144.694 43.6583 144.729 43.7047C144.766 43.7524 144.787 43.7892 144.796 43.8055L142.174 45.2625ZM142.763 45.9251C143.08 46.1364 143.428 46.221 143.749 46.221V43.221C143.953 43.221 144.198 43.2763 144.427 43.4289L142.763 45.9251ZM143.749 46.221H143.859V43.221H143.749V46.221ZM143.859 46.221C144.172 46.221 144.576 46.139 144.939 45.8483L143.065 43.5057C143.355 43.2737 143.664 43.221 143.859 43.221V46.221ZM144.834 45.9251C145.144 45.7188 145.328 45.4538 145.434 45.2625L142.812 43.8055C142.845 43.7462 142.949 43.5766 143.17 43.4289L144.834 45.9251ZM145.387 45.3416L145.893 44.5496L143.365 42.9344L142.859 43.7264L145.387 45.3416ZM145.858 44.6022C146.043 44.3377 146.178 44.0146 146.211 43.6468L143.223 43.3752C143.242 43.1687 143.318 42.9996 143.4 42.8818L145.858 44.6022ZM146.211 43.6468C146.222 43.5256 146.228 43.4031 146.228 43.28H143.228C143.228 43.3036 143.227 43.3351 143.223 43.3752L146.211 43.6468ZM146.228 43.28V41.476H143.228V43.28H146.228ZM146.228 41.476C146.228 41.5038 146.226 41.5959 146.188 41.7234C146.149 41.8559 146.062 42.0541 145.877 42.2397L143.756 40.1183C143.276 40.598 143.228 41.1935 143.228 41.476H146.228ZM145.877 42.2397C145.549 42.5676 145.189 42.58 145.124 42.58V39.58C144.781 39.58 144.216 39.6584 143.756 40.1183L145.877 42.2397ZM145.124 42.58H146.763V39.58H145.124V42.58ZM146.763 42.58C146.718 42.58 146.295 42.5756 145.939 42.1755L148.181 40.1825C147.708 39.6504 147.087 39.58 146.763 39.58V42.58ZM146.064 42.3001C145.664 41.9446 145.659 41.521 145.659 41.476H148.659C148.659 41.1523 148.589 40.5308 148.057 40.0579L146.064 42.3001ZM145.659 41.476V43.588H148.659V41.476H145.659ZM145.659 43.588C145.659 43.7162 145.654 43.8038 145.647 43.858C145.64 43.9175 145.636 43.9071 145.655 43.8542L148.488 44.8398C148.631 44.4285 148.659 43.9716 148.659 43.588H145.659ZM145.655 43.8542C145.66 43.8389 145.657 43.8509 145.634 43.8935C145.611 43.9349 145.574 43.9943 145.518 44.0729L147.965 45.8091C148.167 45.5233 148.364 45.1949 148.488 44.8398L145.655 43.8542ZM145.534 44.0504L143.862 46.3164L146.276 48.0976L147.948 45.8316L145.534 44.0504ZM143.569 47.207V48.604H146.569V47.207H143.569ZM143.569 48.604C143.569 48.5396 143.582 48.1792 143.91 47.8513L146.031 49.9727C146.491 49.5128 146.569 48.9471 146.569 48.604H143.569ZM143.91 47.8513C144.095 47.6658 144.293 47.5791 144.426 47.5398C144.553 47.502 144.645 47.5 144.673 47.5V50.5C144.956 50.5 145.551 50.4523 146.031 49.9727L143.91 47.8513Z" fill="white"/>
<path d="M135.096 32H131.52C131.216 32 130.992 31.936 130.848 31.808C130.72 31.664 130.656 31.44 130.656 31.136V15.584C130.656 15.28 130.72 15.064 130.848 14.936C130.992 14.792 131.216 14.72 131.52 14.72H135.384C135.64 14.72 135.848 14.776 136.008 14.888C136.184 15 136.344 15.184 136.488 15.44L138.648 19.352C138.728 19.496 138.792 19.6 138.84 19.664C138.904 19.728 138.984 19.76 139.08 19.76H139.296C139.392 19.76 139.464 19.728 139.512 19.664C139.576 19.6 139.648 19.496 139.728 19.352L141.864 15.44C142.008 15.184 142.16 15 142.32 14.888C142.496 14.776 142.712 14.72 142.968 14.72H146.856C147.16 14.72 147.376 14.792 147.504 14.936C147.648 15.064 147.72 15.28 147.72 15.584V31.136C147.72 31.44 147.648 31.664 147.504 31.808C147.376 31.936 147.16 32 146.856 32H143.16C142.856 32 142.632 31.936 142.488 31.808C142.36 31.664 142.296 31.44 142.296 31.136V22.688L140.88 25.304C140.736 25.576 140.56 25.776 140.352 25.904C140.16 26.016 139.912 26.072 139.608 26.072H138.648C138.344 26.072 138.088 26.016 137.88 25.904C137.688 25.776 137.52 25.576 137.376 25.304L135.96 22.688V31.136C135.96 31.44 135.888 31.664 135.744 31.808C135.616 31.936 135.4 32 135.096 32ZM168.183 32H157.047C156.743 32 156.519 31.936 156.375 31.808C156.247 31.664 156.183 31.44 156.183 31.136V15.584C156.183 15.28 156.247 15.064 156.375 14.936C156.519 14.792 156.743 14.72 157.047 14.72H168.183C168.487 14.72 168.703 14.792 168.831 14.936C168.975 15.064 169.047 15.28 169.047 15.584V18.392C169.047 18.696 168.975 18.92 168.831 19.064C168.703 19.192 168.487 19.256 168.183 19.256H161.559V21.104H166.239C166.543 21.104 166.759 21.176 166.887 21.32C167.031 21.448 167.103 21.664 167.103 21.968V24.536C167.103 24.84 167.031 25.064 166.887 25.208C166.759 25.336 166.543 25.4 166.239 25.4H161.559V27.464H168.183C168.487 27.464 168.703 27.536 168.831 27.68C168.975 27.808 169.047 28.024 169.047 28.328V31.136C169.047 31.44 168.975 31.664 168.831 31.808C168.703 31.936 168.487 32 168.183 32Z" fill="#7041E6"/>
<path d="M130.848 31.808L129.727 32.8045L129.786 32.8705L129.851 32.9291L130.848 31.808ZM130.848 14.936L129.787 13.8753L129.787 13.8753L130.848 14.936ZM136.008 14.888L135.148 16.1168L135.175 16.1358L135.203 16.1535L136.008 14.888ZM136.488 15.44L137.801 14.7149L137.795 14.7046L136.488 15.44ZM138.648 19.352L137.335 20.077L137.337 20.0805L138.648 19.352ZM138.84 19.664L137.64 20.564L137.704 20.6493L137.779 20.7247L138.84 19.664ZM139.512 19.664L138.451 18.6033L138.376 18.6787L138.312 18.764L139.512 19.664ZM139.728 19.352L141.039 20.0805L141.045 20.0708L139.728 19.352ZM141.864 15.44L140.557 14.7046L140.552 14.7129L140.547 14.7212L141.864 15.44ZM142.32 14.888L141.515 13.6225L141.487 13.6402L141.46 13.6592L142.32 14.888ZM147.504 14.936L146.383 15.9325L146.442 15.9985L146.507 16.0571L147.504 14.936ZM147.504 31.808L148.565 32.8687L148.565 32.8687L147.504 31.808ZM142.488 31.808L141.367 32.8045L141.426 32.8705L141.491 32.9291L142.488 31.808ZM142.296 22.688H143.796L140.977 21.974L142.296 22.688ZM140.88 25.304L139.561 24.5899L139.554 24.6022L140.88 25.304ZM140.352 25.904L141.108 27.1997L141.123 27.1908L141.138 27.1815L140.352 25.904ZM137.88 25.904L137.048 27.1521L137.107 27.1912L137.169 27.2247L137.88 25.904ZM137.376 25.304L138.702 24.6021L138.695 24.59L137.376 25.304ZM135.96 22.688L137.279 21.974L134.46 22.688H135.96ZM135.744 31.808L136.805 32.8687L136.805 32.8687L135.744 31.808ZM135.096 30.5H131.52V33.5H135.096V30.5ZM131.52 30.5C131.467 30.5 131.48 30.4938 131.536 30.5097C131.596 30.5268 131.717 30.5733 131.845 30.6869L129.851 32.9291C130.391 33.4084 131.051 33.5 131.52 33.5V30.5ZM131.969 30.8115C132.083 30.9392 132.129 31.06 132.146 31.1199C132.162 31.1755 132.156 31.1885 132.156 31.136H129.156C129.156 31.6053 129.248 32.2654 129.727 32.8045L131.969 30.8115ZM132.156 31.136V15.584H129.156V31.136H132.156ZM132.156 15.584C132.156 15.5295 132.163 15.5511 132.142 15.6201C132.12 15.6941 132.06 15.8458 131.909 15.9967L129.787 13.8753C129.238 14.4243 129.156 15.1369 129.156 15.584H132.156ZM131.909 15.9967C131.659 16.2466 131.42 16.22 131.52 16.22V13.22C131.012 13.22 130.325 13.3374 129.787 13.8753L131.909 15.9967ZM131.52 16.22H135.384V13.22H131.52V16.22ZM135.384 16.22C135.427 16.22 135.308 16.2288 135.148 16.1168L136.868 13.6591C136.388 13.3232 135.853 13.22 135.384 13.22V16.22ZM135.203 16.1535C135.15 16.1202 135.127 16.0933 135.128 16.0943C135.128 16.0945 135.134 16.1006 135.143 16.1141C135.152 16.1277 135.165 16.1477 135.181 16.1754L137.795 14.7046C137.577 14.316 137.265 13.9102 136.813 13.6225L135.203 16.1535ZM135.175 16.165L137.335 20.077L139.961 18.627L137.801 14.715L135.175 16.165ZM137.337 20.0805C137.423 20.2355 137.528 20.4141 137.64 20.564L140.04 18.764C140.054 18.7825 140.053 18.7828 140.033 18.7519C140.016 18.724 139.992 18.6823 139.959 18.6235L137.337 20.0805ZM137.779 20.7247C138.143 21.0884 138.613 21.26 139.08 21.26V18.26C139.201 18.26 139.349 18.2808 139.505 18.3433C139.663 18.4065 139.796 18.4991 139.901 18.6033L137.779 20.7247ZM139.08 21.26H139.296V18.26H139.08V21.26ZM139.296 21.26C139.758 21.26 140.323 21.0833 140.712 20.564L138.312 18.764C138.439 18.5945 138.611 18.4549 138.813 18.3653C139.006 18.2795 139.179 18.26 139.296 18.26V21.26ZM140.573 20.7247C140.785 20.5124 140.937 20.264 141.039 20.0805L138.417 18.6235C138.406 18.6432 138.397 18.6581 138.391 18.6687C138.387 18.6739 138.385 18.6778 138.383 18.6804C138.381 18.6831 138.381 18.6843 138.381 18.6842C138.381 18.6841 138.382 18.6824 138.384 18.6792C138.387 18.6761 138.39 18.6712 138.396 18.6647C138.406 18.6525 138.424 18.6307 138.451 18.6033L140.573 20.7247ZM141.045 20.0708L143.181 16.1588L140.547 14.7212L138.411 18.6332L141.045 20.0708ZM143.171 16.1754C143.19 16.1425 143.206 16.1174 143.218 16.0988C143.231 16.0801 143.239 16.0696 143.242 16.0653C143.251 16.0553 143.232 16.0805 143.18 16.1168L141.46 13.6592C141.046 13.9485 140.76 14.3427 140.557 14.7046L143.171 16.1754ZM143.125 16.1535C143.072 16.1874 143.024 16.2054 142.99 16.214C142.959 16.2221 142.949 16.22 142.968 16.22V13.22C142.492 13.22 141.981 13.3258 141.515 13.6225L143.125 16.1535ZM142.968 16.22H146.856V13.22H142.968V16.22ZM146.856 16.22C146.897 16.22 146.858 16.2259 146.772 16.197C146.676 16.1651 146.523 16.0899 146.383 15.9325L148.625 13.9395C148.083 13.3294 147.344 13.22 146.856 13.22V16.22ZM146.507 16.0571C146.35 15.9172 146.275 15.764 146.243 15.6683C146.214 15.5818 146.22 15.5427 146.22 15.584H149.22C149.22 15.0957 149.111 14.3571 148.501 13.8149L146.507 16.0571ZM146.22 15.584V31.136H149.22V15.584H146.22ZM146.22 31.136C146.22 31.2363 146.193 30.9972 146.443 30.7473L148.565 32.8687C149.103 32.3308 149.22 31.6437 149.22 31.136H146.22ZM146.443 30.7473C146.594 30.5964 146.746 30.5357 146.82 30.5138C146.889 30.4934 146.911 30.5 146.856 30.5V33.5C147.303 33.5 148.016 33.4176 148.565 32.8687L146.443 30.7473ZM146.856 30.5H143.16V33.5H146.856V30.5ZM143.16 30.5C143.107 30.5 143.12 30.4938 143.176 30.5097C143.236 30.5268 143.357 30.5733 143.485 30.6869L141.491 32.9291C142.031 33.4084 142.691 33.5 143.16 33.5V30.5ZM143.609 30.8115C143.723 30.9392 143.769 31.06 143.786 31.1199C143.802 31.1755 143.796 31.1885 143.796 31.136H140.796C140.796 31.6053 140.888 32.2654 141.367 32.8045L143.609 30.8115ZM143.796 31.136V22.688H140.796V31.136H143.796ZM140.977 21.974L139.561 24.59L142.199 26.018L143.615 23.402L140.977 21.974ZM139.554 24.6022C139.529 24.65 139.513 24.6677 139.514 24.6671C139.514 24.6666 139.519 24.6616 139.528 24.6539C139.537 24.6462 139.55 24.6366 139.566 24.6265L141.138 27.1815C141.626 26.8811 141.969 26.4537 142.206 26.0058L139.554 24.6022ZM139.596 24.6083C139.65 24.5769 139.687 24.5678 139.692 24.5668C139.694 24.5664 139.688 24.5677 139.674 24.5692C139.66 24.5706 139.638 24.572 139.608 24.572V27.572C140.084 27.572 140.617 27.4859 141.108 27.1997L139.596 24.6083ZM139.608 24.572H138.648V27.572H139.608V24.572ZM138.648 24.572C138.587 24.572 138.556 24.5663 138.549 24.5646C138.542 24.5632 138.56 24.5664 138.591 24.5833L137.169 27.2247C137.649 27.4834 138.165 27.572 138.648 27.572V24.572ZM138.712 24.6559C138.749 24.6805 138.763 24.6984 138.759 24.6932C138.754 24.6872 138.733 24.6606 138.702 24.6022L136.05 26.0058C136.274 26.4274 136.591 26.8474 137.048 27.1521L138.712 24.6559ZM138.695 24.59L137.279 21.974L134.641 23.402L136.057 26.018L138.695 24.59ZM134.46 22.688V31.136H137.46V22.688H134.46ZM134.46 31.136C134.46 31.2363 134.433 30.9972 134.683 30.7473L136.805 32.8687C137.343 32.3308 137.46 31.6437 137.46 31.136H134.46ZM134.683 30.7473C134.834 30.5964 134.986 30.5357 135.06 30.5138C135.129 30.4934 135.151 30.5 135.096 30.5V33.5C135.543 33.5 136.256 33.4176 136.805 32.8687L134.683 30.7473ZM156.375 31.808L155.254 32.8045L155.313 32.8705L155.379 32.9291L156.375 31.808ZM156.375 14.936L155.315 13.8753L155.315 13.8753L156.375 14.936ZM168.831 14.936L167.71 15.9325L167.769 15.9985L167.835 16.0571L168.831 14.936ZM161.559 19.256V17.756H160.059V19.256H161.559ZM161.559 21.104H160.059V22.604H161.559V21.104ZM166.887 21.32L165.766 22.3165L165.825 22.3825L165.891 22.4411L166.887 21.32ZM161.559 25.4V23.9H160.059V25.4H161.559ZM161.559 27.464H160.059V28.964H161.559V27.464ZM168.831 27.68L167.71 28.6765L167.769 28.7425L167.835 28.8011L168.831 27.68ZM168.831 31.808L169.892 32.8687L169.892 32.8687L168.831 31.808ZM168.183 30.5H157.047V33.5H168.183V30.5ZM157.047 30.5C156.995 30.5 157.008 30.4938 157.063 30.5097C157.123 30.5268 157.244 30.5733 157.372 30.6869L155.379 32.9291C155.918 33.4084 156.578 33.5 157.047 33.5V30.5ZM157.496 30.8115C157.61 30.9392 157.656 31.06 157.673 31.1199C157.689 31.1755 157.683 31.1885 157.683 31.136H154.683C154.683 31.6053 154.775 32.2654 155.254 32.8045L157.496 30.8115ZM157.683 31.136V15.584H154.683V31.136H157.683ZM157.683 15.584C157.683 15.5295 157.69 15.5511 157.669 15.6201C157.647 15.6941 157.587 15.8458 157.436 15.9967L155.315 13.8753C154.766 14.4243 154.683 15.1369 154.683 15.584H157.683ZM157.436 15.9967C157.186 16.2466 156.947 16.22 157.047 16.22V13.22C156.539 13.22 155.852 13.3374 155.315 13.8753L157.436 15.9967ZM157.047 16.22H168.183V13.22H157.047V16.22ZM168.183 16.22C168.225 16.22 168.185 16.2259 168.099 16.197C168.003 16.1651 167.85 16.0899 167.71 15.9325L169.952 13.9395C169.41 13.3294 168.672 13.22 168.183 13.22V16.22ZM167.835 16.0571C167.677 15.9172 167.602 15.764 167.57 15.6683C167.541 15.5818 167.547 15.5427 167.547 15.584H170.547C170.547 15.0957 170.438 14.3571 169.828 13.8149L167.835 16.0571ZM167.547 15.584V18.392H170.547V15.584H167.547ZM167.547 18.392C167.547 18.4923 167.521 18.2532 167.771 18.0033L169.892 20.1247C170.43 19.5868 170.547 18.8997 170.547 18.392H167.547ZM167.771 18.0033C167.921 17.8524 168.073 17.7917 168.147 17.7698C168.216 17.7494 168.238 17.756 168.183 17.756V20.756C168.63 20.756 169.343 20.6736 169.892 20.1247L167.771 18.0033ZM168.183 17.756H161.559V20.756H168.183V17.756ZM160.059 19.256V21.104H163.059V19.256H160.059ZM161.559 22.604H166.239V19.604H161.559V22.604ZM166.239 22.604C166.281 22.604 166.241 22.6099 166.155 22.581C166.059 22.5491 165.906 22.4739 165.766 22.3165L168.008 20.3235C167.466 19.7134 166.728 19.604 166.239 19.604V22.604ZM165.891 22.4411C165.733 22.3012 165.658 22.148 165.626 22.0523C165.597 21.9658 165.603 21.9267 165.603 21.968H168.603C168.603 21.4797 168.494 20.7411 167.884 20.1989L165.891 22.4411ZM165.603 21.968V24.536H168.603V21.968H165.603ZM165.603 24.536C165.603 24.6363 165.577 24.3972 165.827 24.1473L167.948 26.2687C168.486 25.7308 168.603 25.0437 168.603 24.536H165.603ZM165.827 24.1473C165.977 23.9964 166.129 23.9357 166.203 23.9138C166.272 23.8934 166.294 23.9 166.239 23.9V26.9C166.686 26.9 167.399 26.8176 167.948 26.2687L165.827 24.1473ZM166.239 23.9H161.559V26.9H166.239V23.9ZM160.059 25.4V27.464H163.059V25.4H160.059ZM161.559 28.964H168.183V25.964H161.559V28.964ZM168.183 28.964C168.225 28.964 168.185 28.9699 168.099 28.941C168.003 28.9091 167.85 28.8339 167.71 28.6765L169.952 26.6835C169.41 26.0734 168.672 25.964 168.183 25.964V28.964ZM167.835 28.8011C167.677 28.6612 167.602 28.508 167.57 28.4123C167.541 28.3258 167.547 28.2867 167.547 28.328H170.547C170.547 27.8397 170.438 27.1011 169.828 26.5589L167.835 28.8011ZM167.547 28.328V31.136H170.547V28.328H167.547ZM167.547 31.136C167.547 31.2363 167.521 30.9972 167.771 30.7473L169.892 32.8687C170.43 32.3308 170.547 31.6437 170.547 31.136H167.547ZM167.771 30.7473C167.921 30.5964 168.073 30.5357 168.147 30.5138C168.216 30.4934 168.238 30.5 168.183 30.5V33.5C168.63 33.5 169.343 33.4176 169.892 32.8687L167.771 30.7473Z" fill="white"/>
</svg>
